CossetteTexte-Regular.ufo
<glyph name="quotedbl" format="2">
  <advance width="440"/>
  <unicode hex="0022"/>
  <outline>
    <contour>
      <point x="90" y="540" type="line"/>
      <point x="170" y="540" type="line"/>
      <point x="180" y="800" type="line"/>
      <point x="80" y="800" type="line"/>
    </contour>
    <contour>
      <point x="270" y="540" type="line"/>
      <point x="350" y="540" type="line"/>
      <point x="360" y="800" type="line"/>
      <point x="260" y="800" type="line"/>
    </contour>
  </outline>
</glyph>
<glyph name="numbersign" format="2">
  <advance width="600"/>
  <unicode hex="0023"/>
  <outline>
    <contour>
      <point x="90" y="0" type="line"/>
      <point x="170" y="0" type="line"/>
      <point x="270" y="800" type="line"/>
      <point x="190" y="800" type="line"/>
    </contour>
    <contour>
      <point x="329" y="0" type="line"/>
      <point x="410" y="0" type="line"/>
      <point x="510" y="800" type="line"/>
      <point x="429" y="800" type="line"/>
    </contour>
    <contour>
      <point x="60" y="510" type="line"/>
      <point x="570" y="510" type="line"/>
      <point x="570" y="600" type="line"/>
      <point x="60" y="600" type="line"/>
    </contour>
    <contour>
      <point x="30" y="200" type="line"/>
      <point x="540" y="200" type="line"/>
      <point x="540" y="290" type="line"/>
      <point x="30" y="290" type="line"/>
    </contour>
  </outline>
</glyph>
<glyph name="percent" format="2">
  <advance width="800"/>
  <unicode hex="0025"/>
  <outline>
    <contour>
      <point x="50" y="600" type="curve" smooth="yes"/>
      <point x="50" y="468"/>
      <point x="110" y="390"/>
      <point x="205" y="390" type="curve" smooth="yes"/>
      <point x="300" y="390"/>
      <point x="360" y="468"/>
      <point x="360" y="600" type="curve" smooth="yes"/>
      <point x="360" y="732"/>
      <point x="300" y="810"/>
      <point x="205" y="810" type="curve" smooth="yes"/>
      <point x="110" y="810"/>
      <point x="50" y="732"/>
    </contour>
    <contour>
      <point x="120" y="600" type="curve" smooth="yes"/>
      <point x="120" y="684"/>
      <point x="145" y="735"/>
      <point x="205" y="735" type="curve" smooth="yes"/>
      <point x="265" y="735"/>
      <point x="290" y="684"/>
      <point x="290" y="600" type="curve" smooth="yes"/>
      <point x="290" y="516"/>
      <point x="265" y="465"/>
      <point x="205" y="465" type="curve" smooth="yes"/>
      <point x="145" y="465"/>
      <point x="120" y="516"/>
    </contour>
    <contour>
      <point x="440" y="200" type="curve" smooth="yes"/>
      <point x="440" y="68"/>
      <point x="500" y="-10"/>
      <point x="595" y="-10" type="curve" smooth="yes"/>
      <point x="690" y="-10"/>
      <point x="750" y="68"/>
      <point x="750" y="200" type="curve" smooth="yes"/>
      <point x="750" y="332"/>
      <point x="690" y="410"/>
      <point x="595" y="410" type="curve" smooth="yes"/>
      <point x="500" y="410"/>
      <point x="440" y="332"/>
    </contour>
    <contour>
      <point x="510" y="200" type="curve" smooth="yes"/>
      <point x="510" y="284"/>
      <point x="535" y="335"/>
      <point x="595" y="335" type="curve" smooth="yes"/>
      <point x="655" y="335"/>
      <point x="680" y="284"/>
      <point x="680" y="200" type="curve" smooth="yes"/>
      <point x="680" y="116"/>
      <point x="655" y="65"/>
      <point x="595" y="65" type="curve" smooth="yes"/>
      <point x="535" y="65"/>
      <point x="510" y="116"/>
    </contour>
    <contour>
      <point x="100" y="0" type="line"/>
      <point x="180" y="0" type="line"/>
      <point x="700" y="800" type="line"/>
      <point x="620" y="800" type="line"/>
    </contour>
  </outline>
</glyph>
<glyph name="ampersand" format="2">
  <advance width="670"/>
  <unicode hex="0026"/>
  <outline>
    <contour>
      <point x="640" y="0" type="line"/>
      <point x="320" y="400" type="line" smooth="yes"/>
      <point x="240" y="500"/>
      <point x="205" y="540"/>
      <point x="205" y="600" type="curve" smooth="yes"/>
      <point x="205" y="660"/>
      <point x="250" y="715"/>
      <point x="320" y="715" type="curve" smooth="yes"/>
      <point x="390" y="715"/>
      <point x="435" y="660"/>
      <point x="435" y="600" type="curve" smooth="yes"/>
      <point x="435" y="540"/>
      <point x="390" y="490"/>
      <point x="270" y="450" type="curve" smooth="yes"/>
      <point x="150" y="410"/>
      <point x="50" y="330"/>
      <point x="50" y="210" type="curve" smooth="yes"/>
      <point x="50" y="90"/>
      <point x="140" y="-10"/>
      <point x="290" y="-10" type="curve" smooth="yes"/>
      <point x="470" y="-10"/>
      <point x="610" y="160"/>
      <point x="610" y="400" type="curve"/>
      <point x="520" y="400" type="line"/>
      <point x="520" y="200"/>
      <point x="420" y="85"/>
      <point x="290" y="85" type="curve" smooth="yes"/>
      <point x="190" y="85"/>
      <point x="135" y="140"/>
      <point x="135" y="210" type="curve" smooth="yes"/>
      <point x="135" y="280"/>
      <point x="200" y="340"/>
      <point x="320" y="380" type="curve" smooth="yes"/>
      <point x="440" y="420"/>
      <point x="520" y="510"/>
      <point x="520" y="610" type="curve" smooth="yes"/>
      <point x="520" y="710"/>
      <point x="445" y="810"/>
      <point x="320" y="810" type="curve" smooth="yes"/>
      <point x="195" y="810"/>
      <point x="120" y="710"/>
      <point x="120" y="610" type="curve" smooth="yes"/>
      <point x="120" y="510"/>
      <point x="180" y="440"/>
      <point x="260" y="340" type="curve" smooth="yes"/>
      <point x="530" y="0" type="line"/>
    </contour>
  </outline>
</glyph>
<glyph name="quotesingle" format="2">
  <advance width="260"/>
  <unicode hex="0027"/>
  <outline>
    <contour>
      <point x="90" y="540" type="line"/>
      <point x="170" y="540" type="line"/>
      <point x="180" y="800" type="line"/>
      <point x="80" y="800" type="line"/>
    </contour>
  </outline>
</glyph>
<glyph name="parenright" format="2">
  <advance width="340"/>
  <unicode hex="0029"/>
  <outline>
    <contour>
      <point x="100" y="-200" type="line"/>
      <point x="200" y="-33"/>
      <point x="250" y="133"/>
      <point x="250" y="300" type="curve" smooth="yes"/>
      <point x="250" y="467"/>
      <point x="200" y="633"/>
      <point x="100" y="800" type="curve"/>
      <point x="10" y="800" type="line"/>
      <point x="110" y="633"/>
      <point x="160" y="467"/>
      <point x="160" y="300" type="curve" smooth="yes"/>
      <point x="160" y="133"/>
      <point x="110" y="-33"/>
      <point x="10" y="-200" type="curve"/>
    </contour>
  </outline>
</glyph>
<glyph name="period" format="2">
  <advance width="250"/>
  <unicode hex="002E"/>
  <outline>
    <contour>
      <point x="70" y="0" type="line"/>
      <point x="180" y="0" type="line"/>
      <point x="180" y="120" type="line"/>
      <point x="70" y="120" type="line"/>
    </contour>
  </outline>
</glyph>
<glyph name="zero" format="2">
  <advance width="630"/>
  <unicode hex="0030"/>
  <outline>
    <contour>
      <point x="60" y="400" type="curve" smooth="yes"/>
      <point x="60" y="144"/>
      <point x="155" y="-10"/>
      <point x="315" y="-10" type="curve" smooth="yes"/>
      <point x="474" y="-10"/>
      <point x="570" y="144"/>
      <point x="570" y="400" type="curve" smooth="yes"/>
      <point x="570" y="656"/>
      <point x="474" y="810"/>
      <point x="315" y="810" type="curve" smooth="yes"/>
      <point x="155" y="810"/>
      <point x="60" y="656"/>
    </contour>
    <contour>
      <point x="145" y="400" type="curve" smooth="yes"/>
      <point x="145" y="594"/>
      <point x="208" y="710"/>
      <point x="315" y="710" type="curve" smooth="yes"/>
      <point x="422" y="710"/>
      <point x="485" y="594"/>
      <point x="485" y="400" type="curve" smooth="yes"/>
      <point x="485" y="206"/>
      <point x="422" y="90"/>
      <point x="315" y="90" type="curve" smooth="yes"/>
      <point x="208" y="90"/>
      <point x="145" y="206"/>
    </contour>
  </outline>
</glyph>
<glyph name="two" format="2">
  <advance width="600"/>
  <unicode hex="0032"/>
  <outline>
    <contour>
      <point x="450" y="570" type="curve" smooth="yes"/>
      <point x="450" y="390"/>
      <point x="65" y="400"/>
      <point x="65" y="50" type="curve"/>
      <point x="65" y="0" type="line"/>
      <point x="535" y="0" type="line"/>
      <point x="535" y="100" type="line"/>
      <point x="122" y="100" type="line"/>
      <point x="155" y="80" type="line"/>
      <point x="155" y="320"/>
      <point x="535" y="310"/>
      <point x="535" y="570" type="curve" smooth="yes"/>
      <point x="535" y="690"/>
      <point x="460" y="810"/>
      <point x="300" y="810" type="curve" smooth="yes"/>
      <point x="140" y="810"/>
      <point x="65" y="690"/>
      <point x="65" y="540" type="curve"/>
      <point x="150" y="540" type="line"/>
      <point x="150" y="650"/>
      <point x="205" y="710"/>
      <point x="300" y="710" type="curve" smooth="yes"/>
      <point x="395" y="710"/>
      <point x="450" y="650"/>
    </contour>
  </outline>
</glyph>
<glyph name="three" format="2">
  <advance width="600"/>
  <unicode hex="0033"/>
  <outline>
    <contour>
      <point x="295" y="370" type="line"/>
      <point x="455" y="370"/>
      <point x="530" y="480"/>
      <point x="530" y="590" type="curve" smooth="yes"/>
      <point x="530" y="700"/>
      <point x="455" y="810"/>
      <point x="295" y="810" type="curve" smooth="yes"/>
      <point x="135" y="810"/>
      <point x="60" y="700"/>
      <point x="60" y="580" type="curve"/>
      <point x="145" y="580" type="line"/>
      <point x="145" y="655"/>
      <point x="190" y="710"/>
      <point x="295" y="710" type="curve" smooth="yes"/>
      <point x="400" y="710"/>
      <point x="445" y="655"/>
      <point x="445" y="585" type="curve" smooth="yes"/>
      <point x="445" y="515"/>
      <point x="400" y="460"/>
      <point x="295" y="460" type="curve" smooth="yes"/>
      <point x="205" y="460" type="line"/>
      <point x="205" y="360" type="line"/>
      <point x="295" y="360" type="line" smooth="yes"/>
      <point x="405" y="360"/>
      <point x="460" y="300"/>
      <point x="460" y="225" type="curve" smooth="yes"/>
      <point x="460" y="150"/>
      <point x="405" y="90"/>
      <point x="295" y="90" type="curve" smooth="yes"/>
      <point x="185" y="90"/>
      <point x="130" y="150"/>
      <point x="130" y="230" type="curve"/>
      <point x="45" y="230" type="line"/>
      <point x="45" y="100"/>
      <point x="125" y="-10"/>
      <point x="295" y="-10" type="curve" smooth="yes"/>
      <point x="465" y="-10"/>
      <point x="545" y="100"/>
      <point x="545" y="220" type="curve" smooth="yes"/>
      <point x="545" y="340"/>
      <point x="465" y="450"/>
      <point x="295" y="450" type="curve"/>
    </contour>
  </outline>
</glyph>
<glyph name="colon" format="2">
  <advance width="250"/>
  <unicode hex="003A"/>
  <outline>
    <contour>
      <point x="70" y="0" type="line"/>
      <point x="180" y="0" type="line"/>
      <point x="180" y="120" type="line"/>
      <point x="70" y="120" type="line"/>
    </contour>
    <contour>
      <point x="70" y="480" type="line"/>
      <point x="180" y="480" type="line"/>
      <point x="180" y="600" type="line"/>
      <point x="70" y="600" type="line"/>
    </contour>
  </outline>
</glyph>
<glyph name="less" format="2">
  <advance width="600"/>
  <unicode hex="003C"/>
  <outline>
    <contour>
      <point x="530" y="570" type="line"/>
      <point x="70" y="400" type="line"/>
      <point x="70" y="320" type="line"/>
      <point x="530" y="480" type="line"/>
    </contour>
    <contour>
      <point x="530" y="222" type="line"/>
      <point x="70" y="382" type="line"/>
      <point x="70" y="300" type="line"/>
      <point x="530" y="130" type="line"/>
    </contour>
  </outline>
</glyph>
<glyph name="equal" format="2">
  <advance width="600"/>
  <unicode hex="003D"/>
  <outline>
    <contour>
      <point x="520" y="530" type="line"/>
      <point x="80" y="530" type="line"/>
      <point x="80" y="440" type="line"/>
      <point x="520" y="440" type="line"/>
    </contour>
    <contour>
      <point x="520" y="260" type="line"/>
      <point x="80" y="260" type="line"/>
      <point x="80" y="170" type="line"/>
      <point x="520" y="170" type="line"/>
    </contour>
  </outline>
</glyph>
<glyph name="question" format="2">
  <advance width="540"/>
  <unicode hex="003F"/>
  <outline>
    <contour>
      <point x="390" y="590" type="curve" smooth="yes"/>
      <point x="390" y="470"/>
      <point x="210" y="430"/>
      <point x="210" y="270" type="curve" smooth="yes"/>
      <point x="210" y="220" type="line"/>
      <point x="300" y="220" type="line"/>
      <point x="300" y="270" type="line" smooth="yes"/>
      <point x="300" y="390"/>
      <point x="475" y="430"/>
      <point x="475" y="590" type="curve" smooth="yes"/>
      <point x="475" y="690"/>
      <point x="410" y="810"/>
      <point x="260" y="810" type="curve" smooth="yes"/>
      <point x="110" y="810"/>
      <point x="40" y="690"/>
      <point x="40" y="570" type="curve"/>
      <point x="130" y="570" type="line"/>
      <point x="130" y="650"/>
      <point x="170" y="710"/>
      <point x="260" y="710" type="curve" smooth="yes"/>
      <point x="350" y="710"/>
      <point x="390" y="650"/>
    </contour>
    <contour>
      <point x="200" y="0" type="line"/>
      <point x="310" y="0" type="line"/>
      <point x="310" y="120" type="line"/>
      <point x="200" y="120" type="line"/>
    </contour>
  </outline>
</glyph>
<glyph name="at" format="2">
  <advance width="800"/>
  <unicode hex="0040"/>
  <outline>
    <contour>
      <point x="385" y="150" type="curve" smooth="yes"/>
      <point x="330" y="150"/>
      <point x="300" y="205"/>
      <point x="300" y="300" type="curve" smooth="yes"/>
      <point x="300" y="395"/>
      <point x="330" y="450"/>
      <point x="385" y="450" type="curve" smooth="yes"/>
      <point x="440" y="450"/>
      <point x="470" y="395"/>
      <point x="470" y="300" type="curve" smooth="yes"/>
      <point x="470" y="205"/>
      <point x="440" y="150"/>
    </contour>
    <contour>
      <point x="375" y="530" type="curve" smooth="yes"/>
      <point x="290" y="530"/>
      <point x="230" y="444"/>
      <point x="230" y="300" type="curve" smooth="yes"/>
      <point x="230" y="156"/>
      <point x="290" y="70"/>
      <point x="375" y="70" type="curve" smooth="yes"/>
      <point x="460" y="70"/>
      <point x="510" y="156"/>
      <point x="510" y="300" type="curve" smooth="yes"/>
      <point x="510" y="444"/>
      <point x="460" y="530"/>
    </contour>
    <contour>
      <point x="670" y="300" type="curve" smooth="yes"/>
      <point x="670" y="200"/>
      <point x="630" y="140"/>
      <point x="585" y="140" type="curve" smooth="yes"/>
      <point x="555" y="140"/>
      <point x="540" y="160"/>
      <point x="540" y="200" type="curve" smooth="yes"/>
      <point x="540" y="520" type="line"/>
      <point x="470.0" y="520.0" type="line"/>
      <point x="470.0" y="200.0" type="line" smooth="yes"/>
      <point x="470" y="120"/>
      <point x="510" y="60"/>
      <point x="580" y="60" type="curve" smooth="yes"/>
      <point x="680" y="60"/>
      <point x="740" y="160"/>
      <point x="740" y="300" type="curve" smooth="yes"/>
      <point x="740" y="540"/>
      <point x="600" y="710"/>
      <point x="400" y="710" type="curve" smooth="yes"/>
      <point x="200" y="710"/>
      <point x="60" y="540"/>
      <point x="60" y="300" type="curve" smooth="yes"/>
      <point x="60" y="60"/>
      <point x="200" y="-100"/>
      <point x="400" y="-100" type="curve" smooth="yes"/>
      <point x="478.0" y="-100.0" type="line"/>
      <point x="478.0" y="-20.0" type="line"/>
      <point x="400" y="-20" type="line" smooth="yes"/>
      <point x="240" y="-20"/>
      <point x="130" y="100"/>
      <point x="130" y="300" type="curve" smooth="yes"/>
      <point x="130" y="500"/>
      <point x="240" y="635"/>
      <point x="400" y="635" type="curve" smooth="yes"/>
      <point x="560" y="635"/>
      <point x="670" y="500"/>
    </contour>
  </outline>
</glyph>
<glyph name="A" format="2">
  <advance width="636"/>
  <unicode hex="0041"/>
  <anchor x="318.0" y="800" name="top"/>
  <anchor x="633.0" y="0" name="ogonek"/>
  <outline>
    <contour>
      <point x="3.0" y="0.0" type="line"/>
      <point x="97.0" y="0.0" type="line"/>
      <point x="288.0" y="600.0" type="line"/>
      <point x="312.0" y="680.0" type="line"/>
      <point x="322.0" y="680.0" type="line"/>
      <point x="346.0" y="600.0" type="line"/>
      <point x="537.0" y="0.0" type="line"/>
      <point x="633.0" y="0.0" type="line"/>
      <point x="373.0" y="800.0" type="line"/>
      <point x="263.0" y="800.0" type="line"/>
    </contour>
    <contour>
      <point x="153.0" y="220.0" type="line"/>
      <point x="473.0" y="220.0" type="line"/>
      <point x="473.0" y="320.0" type="line"/>
      <point x="153.0" y="320.0" type="line"/>
    </contour>
  </outline>
</glyph>
<glyph name="B" format="2">
  <advance width="586"/>
  <unicode hex="0042"/>
  <outline>
    <contour>
      <point x="283.0" y="460.0" type="curve" smooth="yes"/>
      <point x="173.0" y="460.0" type="line"/>
      <point x="173.0" y="700.0" type="line"/>
      <point x="283.0" y="700.0" type="line" smooth="yes"/>
      <point x="398.0" y="700.0"/>
      <point x="453.0" y="660.0"/>
      <point x="453.0" y="580.0" type="curve" smooth="yes"/>
      <point x="453.0" y="500.0"/>
      <point x="398.0" y="460.0"/>
    </contour>
    <contour>
      <point x="283.0" y="100.0" type="curve" smooth="yes"/>
      <point x="173.0" y="100.0" type="line"/>
      <point x="173.0" y="360.0" type="line"/>
      <point x="283.0" y="360.0" type="line" smooth="yes"/>
      <point x="393.0" y="360.0"/>
      <point x="468.0" y="315.0"/>
      <point x="468.0" y="230.0" type="curve" smooth="yes"/>
      <point x="468.0" y="145.0"/>
      <point x="393.0" y="100.0"/>
    </contour>
    <contour>
      <point x="283.0" y="380.0" type="line"/>
      <point x="453.0" y="380.0"/>
      <point x="538.0" y="460.0"/>
      <point x="538.0" y="590.0" type="curve" smooth="yes"/>
      <point x="538.0" y="720.0"/>
      <point x="453.0" y="800.0"/>
      <point x="283.0" y="800.0" type="curve" smooth="yes"/>
      <point x="83.0" y="800.0" type="line"/>
      <point x="83.0" y="0.0" type="line"/>
      <point x="283.0" y="0.0" type="line" smooth="yes"/>
      <point x="463.0" y="0.0"/>
      <point x="553.0" y="80.0"/>
      <point x="553.0" y="220.0" type="curve" smooth="yes"/>
      <point x="553.0" y="360.0"/>
      <point x="463.0" y="440.0"/>
      <point x="283.0" y="440.0" type="curve"/>
    </contour>
  </outline>
</glyph>
<glyph name="C" format="2">
  <advance width="621"/>
  <unicode hex="0043"/>
  <anchor x="328.0" y="0" name="bottom"/>
  <anchor x="328.0" y="800" name="top"/>
  <outline>
    <contour>
      <point x="328.0" y="-10.0" type="curve" smooth="yes"/>
      <point x="465.0" y="-10.0"/>
      <point x="558.0" y="90.0"/>
      <point x="588.0" y="260.0" type="curve"/>
      <point x="498.0" y="260.0" type="line"/>
      <point x="473.0" y="150.0"/>
      <point x="415.0" y="90.0"/>
      <point x="328.0" y="90.0" type="curve" smooth="yes"/>
      <point x="209.0" y="90.0"/>
      <point x="138.0" y="206.0"/>
      <point x="138.0" y="400.0" type="curve" smooth="yes"/>
      <point x="138.0" y="594.0"/>
      <point x="209.0" y="710.0"/>
      <point x="328.0" y="710.0" type="curve" smooth="yes"/>
      <point x="415.0" y="710.0"/>
      <point x="473.0" y="650.0"/>
      <point x="498.0" y="540.0" type="curve"/>
      <point x="588.0" y="540.0" type="line"/>
      <point x="558.0" y="710.0"/>
      <point x="465.0" y="810.0"/>
      <point x="328.0" y="810.0" type="curve" smooth="yes"/>
      <point x="156.0" y="810.0"/>
      <point x="53.0" y="656.0"/>
      <point x="53.0" y="400.0" type="curve" smooth="yes"/>
      <point x="53.0" y="144.0"/>
      <point x="156.0" y="-10.0"/>
    </contour>
  </outline>
</glyph>
<glyph name="D" format="2">
  <advance width="656"/>
  <unicode hex="0044"/>
  <anchor x="273.0" y="800" name="top"/>
  <outline>
    <contour>
      <point x="173.0" y="100.0" type="line"/>
      <point x="173.0" y="700.0" type="line"/>
      <point x="298.0" y="700.0" type="line" smooth="yes"/>
      <point x="433.0" y="700.0"/>
      <point x="518.0" y="594.0"/>
      <point x="518.0" y="400.0" type="curve" smooth="yes"/>
      <point x="518.0" y="206.0"/>
      <point x="433.0" y="100.0"/>
      <point x="298.0" y="100.0" type="curve" smooth="yes"/>
    </contour>
    <contour>
      <point x="83.0" y="0.0" type="line"/>
      <point x="298.0" y="0.0" type="line" smooth="yes"/>
      <point x="485.0" y="0.0"/>
      <point x="603.0" y="144.0"/>
      <point x="603.0" y="400.0" type="curve" smooth="yes"/>
      <point x="603.0" y="656.0"/>
      <point x="485.0" y="800.0"/>
      <point x="298.0" y="800.0" type="curve" smooth="yes"/>
      <point x="83.0" y="800.0" type="line"/>
    </contour>
  </outline>
</glyph>
<glyph name="E" format="2">
  <advance width="576"/>
  <unicode hex="0045"/>
  <anchor x="303.0" y="800" name="top"/>
  <anchor x="533.0" y="0" name="ogonek"/>
  <outline>
    <contour>
      <point x="83.0" y="0.0" type="line"/>
      <point x="533.0" y="0.0" type="line"/>
      <point x="533.0" y="100.0" type="line"/>
      <point x="173.0" y="100.0" type="line"/>
      <point x="173.0" y="360.0" type="line"/>
      <point x="497.0" y="360.0" type="line"/>
      <point x="497.0" y="460.0" type="line"/>
      <point x="173.0" y="460.0" type="line"/>
      <point x="173.0" y="700.0" type="line"/>
      <point x="521.0" y="700.0" type="line"/>
      <point x="521.0" y="800.0" type="line"/>
      <point x="83.0" y="800.0" type="line"/>
    </contour>
  </outline>
</glyph>
<glyph name="F" format="2">
  <advance width="546"/>
  <unicode hex="0046"/>
  <outline>
    <contour>
      <point x="83.0" y="0.0" type="line"/>
      <point x="173.0" y="0.0" type="line"/>
      <point x="173.0" y="330.0" type="line"/>
      <point x="493.0" y="330.0" type="line"/>
      <point x="493.0" y="430.0" type="line"/>
      <point x="173.0" y="430.0" type="line"/>
      <point x="173.0" y="700.0" type="line"/>
      <point x="513.0" y="700.0" type="line"/>
      <point x="513.0" y="800.0" type="line"/>
      <point x="83.0" y="800.0" type="line"/>
    </contour>
  </outline>
</glyph>
<glyph name="G" format="2">
  <advance width="646"/>
  <unicode hex="0047"/>
  <anchor x="333" y="800" name="top"/>
  <anchor x="333" y="0" name="bottom"/>
  <outline>
    <contour>
      <point x="518" y="350" type="line"/>
      <point x="518" y="206"/>
      <point x="449" y="90"/>
      <point x="333" y="90" type="curve" smooth="yes"/>
      <point x="211" y="90"/>
      <point x="138" y="206"/>
      <point x="138" y="400" type="curve" smooth="yes"/>
      <point x="138" y="594"/>
      <point x="211" y="710"/>
      <point x="333" y="710" type="curve" smooth="yes"/>
      <point x="417" y="710"/>
      <point x="483" y="660"/>
      <point x="508" y="560" type="curve"/>
      <point x="598" y="560" type="line"/>
      <point x="563" y="720"/>
      <point x="468" y="810"/>
      <point x="333" y="810" type="curve" smooth="yes"/>
      <point x="158" y="810"/>
      <point x="53" y="656"/>
      <point x="53" y="400" type="curve" smooth="yes"/>
      <point x="53" y="144"/>
      <point x="158" y="-10"/>
      <point x="333" y="-10" type="curve" smooth="yes"/>
      <point x="501" y="-10"/>
      <point x="603" y="144"/>
      <point x="603" y="350" type="curve"/>
      <point x="603" y="420" type="line"/>
      <point x="333" y="420" type="line"/>
      <point x="333" y="320" type="line"/>
      <point x="583" y="320" type="line"/>
    </contour>
  </outline>
</glyph>
<glyph name="H" format="2">
  <advance width="666"/>
  <unicode hex="0048"/>
  <outline>
    <contour>
      <point x="83.0" y="0.0" type="line"/>
      <point x="173.0" y="0.0" type="line"/>
      <point x="173.0" y="360.0" type="line"/>
      <point x="493.0" y="360.0" type="line"/>
      <point x="493.0" y="0.0" type="line"/>
      <point x="583.0" y="0.0" type="line"/>
      <point x="583.0" y="800.0" type="line"/>
      <point x="493.0" y="800.0" type="line"/>
      <point x="493.0" y="460.0" type="line"/>
      <point x="173.0" y="460.0" type="line"/>
      <point x="173.0" y="800.0" type="line"/>
      <point x="83.0" y="800.0" type="line"/>
    </contour>
  </outline>
</glyph>
<glyph name="I" format="2">
  <advance width="256"/>
  <unicode hex="0049"/>
  <anchor x="128.0" y="800" name="top"/>
  <anchor x="173.0" y="0" name="ogonek"/>
  <outline>
    <contour>
      <point x="83.0" y="0.0" type="line"/>
      <point x="173.0" y="0.0" type="line"/>
      <point x="173.0" y="800.0" type="line"/>
      <point x="83.0" y="800.0" type="line"/>
    </contour>
  </outline>
</glyph>
<glyph name="J" format="2">
  <advance width="546"/>
  <unicode hex="004A"/>
  <outline>
    <contour>
      <point x="33.0" y="240.0" type="line" smooth="yes"/>
      <point x="33.0" y="90.0"/>
      <point x="121.0" y="-10.0"/>
      <point x="253.0" y="-10.0" type="curve" smooth="yes"/>
      <point x="385.0" y="-10.0"/>
      <point x="473.0" y="90.0"/>
      <point x="473.0" y="240.0" type="curve" smooth="yes"/>
      <point x="473.0" y="800.0" type="line"/>
      <point x="383.0" y="800.0" type="line"/>
      <point x="383.0" y="240.0" type="line" smooth="yes"/>
      <point x="383.0" y="150.0"/>
      <point x="333.0" y="90.0"/>
      <point x="253.0" y="90.0" type="curve" smooth="yes"/>
      <point x="173.0" y="90.0"/>
      <point x="123.0" y="150.0"/>
      <point x="123.0" y="240.0" type="curve" smooth="yes"/>
      <point x="123.0" y="270.0" type="line"/>
      <point x="33.0" y="270.0" type="line"/>
    </contour>
  </outline>
</glyph>
<glyph name="K" format="2">
  <advance width="616"/>
  <unicode hex="004B"/>
  <anchor x="313.0" y="0" name="bottom"/>
  <outline>
    <contour>
      <point x="83.0" y="0.0" type="line"/>
      <point x="173.0" y="0.0" type="line"/>
      <point x="173.0" y="800.0" type="line"/>
      <point x="83.0" y="800.0" type="line"/>
    </contour>
    <contour>
      <point x="498.0" y="800.0" type="line"/>
      <point x="83.0" y="260.0" type="line"/>
      <point x="173.0" y="240.0" type="line"/>
      <point x="613.0" y="800.0" type="line"/>
    </contour>
    <contour>
      <point x="508.0" y="0.0" type="line"/>
      <point x="613.0" y="0.0" type="line"/>
      <point x="343.0" y="480.0" type="line"/>
      <point x="258.0" y="450.0" type="line"/>
    </contour>
  </outline>
</glyph>
<glyph name="L" format="2">
  <advance width="526"/>
  <unicode hex="004C"/>
  <anchor x="128.0" y="800" name="top"/>
  <anchor x="293.0" y="0" name="bottom"/>
  <anchor x="173.0" y="600" name="caron.alt"/>
  <outline>
    <contour>
      <point x="83.0" y="0.0" type="line"/>
      <point x="503.0" y="0.0" type="line"/>
      <point x="503.0" y="100.0" type="line"/>
      <point x="173.0" y="100.0" type="line"/>
      <point x="173.0" y="800.0" type="line"/>
      <point x="83.0" y="800.0" type="line"/>
    </contour>
  </outline>
</glyph>
<glyph name="M" format="2">
  <advance width="836"/>
  <unicode hex="004D"/>
  <outline>
    <contour>
      <point x="83.0" y="0.0" type="line"/>
      <point x="173.0" y="0.0" type="line"/>
      <point x="173.0" y="680.0" type="line"/>
      <point x="183.0" y="680.0" type="line"/>
      <point x="203.0" y="600.0" type="line"/>
      <point x="368.0" y="0.0" type="line"/>
      <point x="468.0" y="0.0" type="line"/>
      <point x="633.0" y="600.0" type="line"/>
      <point x="653.0" y="680.0" type="line"/>
      <point x="663.0" y="680.0" type="line"/>
      <point x="663.0" y="0.0" type="line"/>
      <point x="753.0" y="0.0" type="line"/>
      <point x="753.0" y="800.0" type="line"/>
      <point x="597.0" y="800.0" type="line"/>
      <point x="443.0" y="240.0" type="line"/>
      <point x="423.0" y="160.0" type="line"/>
      <point x="413.0" y="160.0" type="line"/>
      <point x="393.0" y="240.0" type="line"/>
      <point x="239.0" y="800.0" type="line"/>
      <point x="83.0" y="800.0" type="line"/>
    </contour>
  </outline>
</glyph>
<glyph name="N" format="2">
  <advance width="676"/>
  <unicode hex="004E"/>
  <anchor x="347.0" y="800" name="top"/>
  <anchor x="338.0" y="0" name="bottom"/>
  <outline>
    <contour>
      <point x="83.0" y="0.0" type="line"/>
      <point x="173.0" y="0.0" type="line"/>
      <point x="173.0" y="800.0" type="line"/>
      <point x="83.0" y="800.0" type="line"/>
    </contour>
    <contour>
      <point x="503.0" y="0.0" type="line"/>
      <point x="593.0" y="0.0" type="line"/>
      <point x="593.0" y="800.0" type="line"/>
      <point x="503.0" y="800.0" type="line"/>
    </contour>
    <contour>
      <point x="469.0" y="0.0" type="line"/>
      <point x="553.0" y="0.0" type="line"/>
      <point x="503.0" y="160.0" type="line"/>
      <point x="493.0" y="160.0" type="line"/>
      <point x="207.0" y="800.0" type="line"/>
      <point x="123.0" y="800.0" type="line"/>
      <point x="173.0" y="640.0" type="line"/>
      <point x="183.0" y="640.0" type="line"/>
    </contour>
  </outline>
</glyph>
<glyph name="O" format="2">
  <advance width="676"/>
  <unicode hex="004F"/>
  <anchor x="338.0" y="800.0" name="top"/>
  <outline>
    <contour>
      <point x="53.0" y="400.0" type="curve" smooth="yes"/>
      <point x="53.0" y="144.0"/>
      <point x="160.0" y="-10.0"/>
      <point x="338.0" y="-10.0" type="curve" smooth="yes"/>
      <point x="515.0" y="-10.0"/>
      <point x="623.0" y="144.0"/>
      <point x="623.0" y="400.0" type="curve" smooth="yes"/>
      <point x="623.0" y="656.0"/>
      <point x="515.0" y="810.0"/>
      <point x="338.0" y="810.0" type="curve" smooth="yes"/>
      <point x="160.0" y="810.0"/>
      <point x="53.0" y="656.0"/>
    </contour>
    <contour>
      <point x="138.0" y="400.0" type="curve" smooth="yes"/>
      <point x="138.0" y="594.0"/>
      <point x="213.0" y="710.0"/>
      <point x="338.0" y="710.0" type="curve" smooth="yes"/>
      <point x="463.0" y="710.0"/>
      <point x="538.0" y="594.0"/>
      <point x="538.0" y="400.0" type="curve" smooth="yes"/>
      <point x="538.0" y="206.0"/>
      <point x="463.0" y="90.0"/>
      <point x="338.0" y="90.0" type="curve" smooth="yes"/>
      <point x="213.0" y="90.0"/>
      <point x="138.0" y="206.0"/>
    </contour>
  </outline>
</glyph>
<glyph name="P" format="2">
  <advance width="586"/>
  <unicode hex="0050"/>
  <outline>
    <contour>
      <point x="83" y="0" type="line"/>
      <point x="173" y="0" type="line"/>
      <point x="173" y="320" type="line"/>
      <point x="313" y="320" type="line" smooth="yes"/>
      <point x="493" y="320"/>
      <point x="563" y="420"/>
      <point x="563" y="560" type="curve" smooth="yes"/>
      <point x="563" y="700"/>
      <point x="493" y="800"/>
      <point x="313" y="800" type="curve" smooth="yes"/>
      <point x="83" y="800" type="line"/>
    </contour>
    <contour>
      <point x="173" y="420" type="line"/>
      <point x="173" y="700" type="line"/>
      <point x="313" y="700" type="line" smooth="yes"/>
      <point x="433" y="700"/>
      <point x="478" y="650"/>
      <point x="478" y="560" type="curve" smooth="yes"/>
      <point x="478" y="470"/>
      <point x="433" y="420"/>
      <point x="313" y="420" type="curve" smooth="yes"/>
    </contour>
  </outline>
</glyph>
<glyph name="Q" format="2">
  <advance width="676"/>
  <unicode hex="0051"/>
  <outline>
    <contour>
      <point x="553" y="0" type="line"/>
      <point x="668" y="0" type="line"/>
      <point x="388" y="330" type="line"/>
      <point x="273" y="330" type="line"/>
    </contour>
    <contour>
      <point x="53" y="400" type="curve" smooth="yes"/>
      <point x="53" y="144"/>
      <point x="160" y="-10"/>
      <point x="338" y="-10" type="curve" smooth="yes"/>
      <point x="515" y="-10"/>
      <point x="623" y="144"/>
      <point x="623" y="400" type="curve" smooth="yes"/>
      <point x="623" y="656"/>
      <point x="515" y="810"/>
      <point x="338" y="810" type="curve" smooth="yes"/>
      <point x="160" y="810"/>
      <point x="53" y="656"/>
    </contour>
    <contour>
      <point x="138" y="400" type="curve" smooth="yes"/>
      <point x="138" y="594"/>
      <point x="213" y="710"/>
      <point x="338" y="710" type="curve" smooth="yes"/>
      <point x="463" y="710"/>
      <point x="538" y="594"/>
      <point x="538" y="400" type="curve" smooth="yes"/>
      <point x="538" y="206"/>
      <point x="463" y="90"/>
      <point x="338" y="90" type="curve" smooth="yes"/>
      <point x="213" y="90"/>
      <point x="138" y="206"/>
    </contour>
  </outline>
</glyph>
<glyph name="R" format="2">
  <advance width="611"/>
  <unicode hex="0052"/>
  <anchor x="293.0" y="800" name="top"/>
  <outline>
    <contour>
      <point x="303.0" y="700.0" type="line" smooth="yes"/>
      <point x="413.0" y="700.0"/>
      <point x="478.0" y="655.0"/>
      <point x="478.0" y="570.0" type="curve" smooth="yes"/>
      <point x="478.0" y="485.0"/>
      <point x="413.0" y="440.0"/>
      <point x="303.0" y="440.0" type="curve" smooth="yes"/>
      <point x="173.0" y="440.0" type="line"/>
      <point x="173.0" y="700.0" type="line"/>
    </contour>
    <contour>
      <point x="83.0" y="0.0" type="line"/>
      <point x="173.0" y="0.0" type="line"/>
      <point x="173.0" y="340.0" type="line"/>
      <point x="303.0" y="340.0" type="line" smooth="yes"/>
      <point x="403.0" y="340.0"/>
      <point x="453.0" y="300.0"/>
      <point x="453.0" y="220.0" type="curve" smooth="yes"/>
      <point x="453.0" y="90.0" type="line" smooth="yes"/>
      <point x="453.0" y="60.0"/>
      <point x="458.0" y="30.0"/>
      <point x="468.0" y="0.0" type="curve"/>
      <point x="558.0" y="0.0" type="line"/>
      <point x="548.0" y="30.0"/>
      <point x="543.0" y="60.0"/>
      <point x="543.0" y="90.0" type="curve" smooth="yes"/>
      <point x="543.0" y="220.0" type="line" smooth="yes"/>
      <point x="543.0" y="350.0"/>
      <point x="463.0" y="420.0"/>
      <point x="303.0" y="420.0" type="curve"/>
      <point x="303.0" y="360.0" type="line"/>
      <point x="483.0" y="360.0"/>
      <point x="563.0" y="440.0"/>
      <point x="563.0" y="580.0" type="curve" smooth="yes"/>
      <point x="563.0" y="720.0"/>
      <point x="483.0" y="800.0"/>
      <point x="303.0" y="800.0" type="curve" smooth="yes"/>
      <point x="83.0" y="800.0" type="line"/>
    </contour>
  </outline>
</glyph>
<glyph name="S" format="2">
  <advance width="571"/>
  <unicode hex="0053"/>
  <anchor x="288.0" y="800" name="top"/>
  <anchor x="288.0" y="0" name="bottom"/>
  <outline>
    <contour>
      <point x="38.0" y="250.0" type="line"/>
      <point x="38.0" y="110.0"/>
      <point x="118.0" y="-10.0"/>
      <point x="288.0" y="-10.0" type="curve" smooth="yes"/>
      <point x="458.0" y="-10.0"/>
      <point x="533.0" y="110.0"/>
      <point x="533.0" y="220.0" type="curve" smooth="yes"/>
      <point x="533.0" y="350.0"/>
      <point x="468.0" y="410.0"/>
      <point x="308.0" y="450.0" type="curve" smooth="yes"/>
      <point x="188.0" y="480.0"/>
      <point x="143.0" y="510.0"/>
      <point x="143.0" y="580.0" type="curve" smooth="yes"/>
      <point x="143.0" y="650.0"/>
      <point x="193.0" y="710.0"/>
      <point x="288.0" y="710.0" type="curve" smooth="yes"/>
      <point x="383.0" y="710.0"/>
      <point x="438.0" y="650.0"/>
      <point x="438.0" y="560.0" type="curve"/>
      <point x="528.0" y="560.0" type="line"/>
      <point x="528.0" y="690.0"/>
      <point x="448.0" y="810.0"/>
      <point x="288.0" y="810.0" type="curve" smooth="yes"/>
      <point x="128.0" y="810.0"/>
      <point x="58.0" y="690.0"/>
      <point x="58.0" y="580.0" type="curve" smooth="yes"/>
      <point x="58.0" y="450.0"/>
      <point x="123.0" y="390.0"/>
      <point x="283.0" y="350.0" type="curve" smooth="yes"/>
      <point x="403.0" y="320.0"/>
      <point x="448.0" y="290.0"/>
      <point x="448.0" y="220.0" type="curve" smooth="yes"/>
      <point x="448.0" y="150.0"/>
      <point x="393.0" y="90.0"/>
      <point x="288.0" y="90.0" type="curve" smooth="yes"/>
      <point x="183.0" y="90.0"/>
      <point x="128.0" y="150.0"/>
      <point x="128.0" y="250.0" type="curve"/>
    </contour>
  </outline>
</glyph>
<glyph name="T" format="2">
  <advance width="566"/>
  <unicode hex="0054"/>
  <anchor x="283.0" y="800" name="top"/>
  <anchor x="283.0" y="0" name="bottom"/>
  <outline>
    <contour>
      <point x="238.0" y="0.0" type="line"/>
      <point x="328.0" y="0.0" type="line"/>
      <point x="328.0" y="700.0" type="line"/>
      <point x="543.0" y="700.0" type="line"/>
      <point x="543.0" y="800.0" type="line"/>
      <point x="23.0" y="800.0" type="line"/>
      <point x="23.0" y="700.0" type="line"/>
      <point x="238.0" y="700.0" type="line"/>
    </contour>
  </outline>
</glyph>
<glyph name="U" format="2">
  <advance width="656"/>
  <unicode hex="0055"/>
  <anchor x="328.0" y="800" name="top"/>
  <outline>
    <contour>
      <point x="73.0" y="300.0" type="line" smooth="yes"/>
      <point x="73.0" y="100.0"/>
      <point x="162.0" y="-10.0"/>
      <point x="328.0" y="-10.0" type="curve" smooth="yes"/>
      <point x="494.0" y="-10.0"/>
      <point x="583.0" y="100.0"/>
      <point x="583.0" y="300.0" type="curve" smooth="yes"/>
      <point x="583.0" y="800.0" type="line"/>
      <point x="493.0" y="800.0" type="line"/>
      <point x="493.0" y="300.0" type="line" smooth="yes"/>
      <point x="493.0" y="160.0"/>
      <point x="452.0" y="90.0"/>
      <point x="328.0" y="90.0" type="curve" smooth="yes"/>
      <point x="204.0" y="90.0"/>
      <point x="163.0" y="160.0"/>
      <point x="163.0" y="300.0" type="curve" smooth="yes"/>
      <point x="163.0" y="800.0" type="line"/>
      <point x="73.0" y="800.0" type="line"/>
    </contour>
  </outline>
</glyph>
<glyph name="V" format="2">
  <advance width="626"/>
  <unicode hex="0056"/>
  <outline>
    <contour>
      <point x="623.0" y="800.0" type="line"/>
      <point x="527.0" y="800.0" type="line"/>
      <point x="343.0" y="220.0" type="line"/>
      <point x="319.0" y="140.0" type="line"/>
      <point x="309.0" y="140.0" type="line"/>
      <point x="285.0" y="220.0" type="line"/>
      <point x="101.0" y="800.0" type="line"/>
      <point x="3.0" y="800.0" type="line"/>
      <point x="263.0" y="0.0" type="line"/>
      <point x="363.0" y="0.0" type="line"/>
    </contour>
  </outline>
</glyph>
<glyph name="W" format="2">
  <advance width="866"/>
  <unicode hex="0057"/>
  <anchor x="433.0" y="800" name="top"/>
  <outline>
    <contour>
      <point x="173.0" y="0.0" type="line"/>
      <point x="303.0" y="0.0" type="line"/>
      <point x="413.0" y="570.0" type="line"/>
      <point x="428.0" y="660.0" type="line"/>
      <point x="438.0" y="660.0" type="line"/>
      <point x="453.0" y="570.0" type="line"/>
      <point x="563.0" y="0.0" type="line"/>
      <point x="693.0" y="0.0" type="line"/>
      <point x="853.0" y="800.0" type="line"/>
      <point x="758.0" y="800.0" type="line"/>
      <point x="648.0" y="230.0" type="line"/>
      <point x="633.0" y="140.0" type="line"/>
      <point x="623.0" y="140.0" type="line"/>
      <point x="608.0" y="230.0" type="line"/>
      <point x="498.0" y="800.0" type="line"/>
      <point x="368.0" y="800.0" type="line"/>
      <point x="258.0" y="230.0" type="line"/>
      <point x="243.0" y="140.0" type="line"/>
      <point x="233.0" y="140.0" type="line"/>
      <point x="218.0" y="230.0" type="line"/>
      <point x="108.0" y="800.0" type="line"/>
      <point x="13.0" y="800.0" type="line"/>
    </contour>
  </outline>
</glyph>
<glyph name="X" format="2">
  <advance width="536"/>
  <unicode hex="0058"/>
  <outline>
    <contour>
      <point x="3.0" y="0.0" type="line"/>
      <point x="103.0" y="0.0" type="line"/>
      <point x="303.0" y="400.0" type="line"/>
      <point x="303.0" y="480.0" type="line"/>
      <point x="247.0" y="480.0" type="line"/>
    </contour>
    <contour>
      <point x="431.0" y="0.0" type="line"/>
      <point x="533.0" y="0.0" type="line"/>
      <point x="289.0" y="480.0" type="line"/>
      <point x="231.0" y="480.0" type="line"/>
      <point x="231.0" y="400.0" type="line"/>
    </contour>
    <contour>
      <point x="13.0" y="800.0" type="line"/>
      <point x="217.0" y="400.0" type="line"/>
      <point x="315.0" y="400.0" type="line"/>
      <point x="115.0" y="800.0" type="line"/>
    </contour>
    <contour>
      <point x="233.0" y="480.0" type="line"/>
      <point x="303.0" y="480.0" type="line"/>
      <point x="303.0" y="497.0" type="line"/>
      <point x="233.0" y="497.0" type="line"/>
    </contour>
    <contour>
      <point x="233.0" y="323.0" type="line"/>
      <point x="303.0" y="323.0" type="line"/>
      <point x="303.0" y="400.0" type="line"/>
      <point x="233.0" y="400.0" type="line"/>
    </contour>
    <contour>
      <point x="523.0" y="800.0" type="line"/>
      <point x="423.0" y="800.0" type="line"/>
      <point x="223.0" y="400.0" type="line"/>
      <point x="319.0" y="400.0" type="line"/>
    </contour>
  </outline>
</glyph>
<glyph name="Y" format="2">
  <advance width="576"/>
  <unicode hex="0059"/>
  <anchor x="288" y="800" name="top"/>
  <outline>
    <contour>
      <point x="293" y="436" type="line"/>
      <point x="285" y="436" type="line"/>
      <point x="253" y="500" type="line"/>
      <point x="105" y="800" type="line"/>
      <point x="3" y="800" type="line"/>
      <point x="243" y="320" type="line"/>
      <point x="243" y="0" type="line"/>
      <point x="333" y="0" type="line"/>
      <point x="333" y="320" type="line"/>
      <point x="573" y="800" type="line"/>
      <point x="473" y="800" type="line"/>
      <point x="325" y="500" type="line"/>
    </contour>
  </outline>
</glyph>
<glyph name="Z" format="2">
  <advance width="556"/>
  <unicode hex="005A"/>
  <anchor x="283" y="800" name="top"/>
  <outline>
    <contour>
      <point x="43" y="0" type="line"/>
      <point x="513" y="0" type="line"/>
      <point x="513" y="100" type="line"/>
      <point x="151" y="100" type="line"/>
      <point x="513" y="710" type="line"/>
      <point x="513" y="800" type="line"/>
      <point x="53" y="800" type="line"/>
      <point x="53" y="700" type="line"/>
      <point x="405" y="700" type="line"/>
      <point x="43" y="90" type="line"/>
    </contour>
  </outline>
</glyph>
<glyph name="bracketright" format="2">
  <advance width="340"/>
  <unicode hex="005D"/>
  <outline>
    <contour>
      <point x="250" y="-200" type="line"/>
      <point x="250" y="800" type="line"/>
      <point x="10" y="800" type="line"/>
      <point x="10" y="710" type="line"/>
      <point x="170" y="710" type="line"/>
      <point x="170" y="-110" type="line"/>
      <point x="10" y="-110" type="line"/>
      <point x="10" y="-200" type="line"/>
    </contour>
  </outline>
</glyph>
<glyph name="a" format="2">
  <advance width="526"/>
  <unicode hex="0061"/>
  <anchor x="263.0" y="600" name="top"/>
  <anchor x="478.0" y="0" name="ogonek"/>
  <outline>
    <contour>
      <point x="233.0" y="85.0" type="curve" smooth="yes"/>
      <point x="163.0" y="85.0"/>
      <point x="128.0" y="120.0"/>
      <point x="128.0" y="170.0" type="curve" smooth="yes"/>
      <point x="128.0" y="270.0"/>
      <point x="293.0" y="270.0"/>
      <point x="373.0" y="310.0" type="curve"/>
      <point x="373.0" y="220.0" type="line" smooth="yes"/>
      <point x="373.0" y="140.0"/>
      <point x="303.0" y="85.0"/>
    </contour>
    <contour>
      <point x="208.0" y="-10.0" type="curve" smooth="yes"/>
      <point x="288.0" y="-10.0"/>
      <point x="338.0" y="30.0"/>
      <point x="368.0" y="90.0" type="curve"/>
      <point x="373.0" y="90.0" type="line"/>
      <point x="373.0" y="60.0"/>
      <point x="378.0" y="30.0"/>
      <point x="388.0" y="0.0" type="curve"/>
      <point x="478.0" y="0.0" type="line"/>
      <point x="468.0" y="30.0"/>
      <point x="463.0" y="70.0"/>
      <point x="463.0" y="120.0" type="curve" smooth="yes"/>
      <point x="463.0" y="400.0" type="line" smooth="yes"/>
      <point x="463.0" y="540.0"/>
      <point x="378.0" y="610.0"/>
      <point x="263.0" y="610.0" type="curve" smooth="yes"/>
      <point x="148.0" y="610.0"/>
      <point x="67.0" y="540.0"/>
      <point x="53.0" y="420.0" type="curve"/>
      <point x="143.0" y="420.0" type="line"/>
      <point x="150.0" y="480.0"/>
      <point x="198.0" y="515.0"/>
      <point x="263.0" y="515.0" type="curve" smooth="yes"/>
      <point x="328.0" y="515.0"/>
      <point x="373.0" y="480.0"/>
      <point x="373.0" y="430.0" type="curve" smooth="yes"/>
      <point x="373.0" y="330.0"/>
      <point x="43.0" y="400.0"/>
      <point x="43.0" y="160.0" type="curve" smooth="yes"/>
      <point x="43.0" y="60.0"/>
      <point x="118.0" y="-10.0"/>
    </contour>
  </outline>
</glyph>
<glyph name="c" format="2">
  <advance width="526"/>
  <unicode hex="0063"/>
  <anchor x="273.0" y="600" name="top"/>
  <anchor x="273.0" y="0" name="bottom"/>
  <outline>
    <contour>
      <point x="273.0" y="-10.0" type="curve" smooth="yes"/>
      <point x="393.0" y="-10.0"/>
      <point x="473.0" y="70.0"/>
      <point x="493.0" y="210.0" type="curve"/>
      <point x="403.0" y="210.0" type="line"/>
      <point x="388.0" y="130.0"/>
      <point x="341.0" y="85.0"/>
      <point x="273.0" y="85.0" type="curve" smooth="yes"/>
      <point x="182.0" y="85.0"/>
      <point x="128.0" y="166.0"/>
      <point x="128.0" y="300.0" type="curve" smooth="yes"/>
      <point x="128.0" y="434.0"/>
      <point x="182.0" y="515.0"/>
      <point x="273.0" y="515.0" type="curve" smooth="yes"/>
      <point x="341.0" y="515.0"/>
      <point x="388.0" y="470.0"/>
      <point x="403.0" y="390.0" type="curve"/>
      <point x="493.0" y="390.0" type="line"/>
      <point x="473.0" y="530.0"/>
      <point x="393.0" y="610.0"/>
      <point x="273.0" y="610.0" type="curve" smooth="yes"/>
      <point x="129.0" y="610.0"/>
      <point x="43.0" y="494.0"/>
      <point x="43.0" y="300.0" type="curve" smooth="yes"/>
      <point x="43.0" y="106.0"/>
      <point x="129.0" y="-10.0"/>
    </contour>
  </outline>
</glyph>
<glyph name="d" format="2">
  <advance width="576"/>
  <unicode hex="0064"/>
  <anchor x="503" y="600" name="caron.alt"/>
  <outline>
    <contour>
      <point x="503" y="0" type="line"/>
      <point x="503" y="800" type="line"/>
      <point x="413" y="800" type="line"/>
      <point x="413" y="510" type="line"/>
      <point x="408" y="510" type="line"/>
      <point x="378" y="570"/>
      <point x="323" y="610"/>
      <point x="253" y="610" type="curve" smooth="yes"/>
      <point x="129" y="610"/>
      <point x="43" y="494"/>
      <point x="43" y="300" type="curve" smooth="yes"/>
      <point x="43" y="106"/>
      <point x="129" y="-10"/>
      <point x="253" y="-10" type="curve" smooth="yes"/>
      <point x="323" y="-10"/>
      <point x="378" y="30"/>
      <point x="408" y="90" type="curve"/>
      <point x="413" y="90" type="line"/>
      <point x="413" y="0" type="line"/>
    </contour>
    <contour>
      <point x="273" y="85" type="curve" smooth="yes"/>
      <point x="182" y="85"/>
      <point x="128" y="166"/>
      <point x="128" y="300" type="curve" smooth="yes"/>
      <point x="128" y="434"/>
      <point x="182" y="515"/>
      <point x="273" y="515" type="curve" smooth="yes"/>
      <point x="364" y="515"/>
      <point x="418" y="434"/>
      <point x="418" y="300" type="curve" smooth="yes"/>
      <point x="418" y="166"/>
      <point x="364" y="85"/>
    </contour>
  </outline>
</glyph>
<glyph name="e" format="2">
  <advance width="546"/>
  <unicode hex="0065"/>
  <anchor x="273.0" y="600" name="top"/>
  <outline>
    <contour>
      <point x="103.0" y="265.0" type="line"/>
      <point x="501.0" y="265.0" type="line"/>
      <point x="502.0" y="275.0"/>
      <point x="503.0" y="290.0"/>
      <point x="503.0" y="300.0" type="curve" smooth="yes"/>
      <point x="503.0" y="494.0"/>
      <point x="417.0" y="610.0"/>
      <point x="273.0" y="610.0" type="curve" smooth="yes"/>
      <point x="129.0" y="610.0"/>
      <point x="43.0" y="494.0"/>
      <point x="43.0" y="300.0" type="curve" smooth="yes"/>
      <point x="43.0" y="106.0"/>
      <point x="129.0" y="-10.0"/>
      <point x="273.0" y="-10.0" type="curve" smooth="yes"/>
      <point x="388.0" y="-10.0"/>
      <point x="458.0" y="60.0"/>
      <point x="488.0" y="180.0" type="curve"/>
      <point x="398.0" y="180.0" type="line"/>
      <point x="378.0" y="120.0"/>
      <point x="333.0" y="85.0"/>
      <point x="273.0" y="85.0" type="curve" smooth="yes"/>
      <point x="182.0" y="85.0"/>
      <point x="128.0" y="166.0"/>
      <point x="128.0" y="300.0" type="curve" smooth="yes"/>
      <point x="128.0" y="434.0"/>
      <point x="182.0" y="515.0"/>
      <point x="273.0" y="515.0" type="curve" smooth="yes"/>
      <point x="364.0" y="515.0"/>
      <point x="418.0" y="434.0"/>
      <point x="418.0" y="300.0" type="curve"/>
      <point x="473.0" y="355.0" type="line"/>
      <point x="103.0" y="355.0" type="line"/>
    </contour>
  </outline>
</glyph>
<glyph name="f" format="2">
  <advance width="336"/>
  <unicode hex="0066"/>
  <outline>
    <contour>
      <point x="193.0" y="0.0" type="line"/>
      <point x="193.0" y="505.0" type="line"/>
      <point x="303.0" y="505.0" type="line"/>
      <point x="303.0" y="600.0" type="line"/>
      <point x="193.0" y="600.0" type="line"/>
      <point x="193.0" y="665.0" type="line" smooth="yes"/>
      <point x="193.0" y="695.0"/>
      <point x="203.0" y="705.0"/>
      <point x="233.0" y="705.0" type="curve" smooth="yes"/>
      <point x="303.0" y="705.0" type="line"/>
      <point x="303.0" y="800.0" type="line"/>
      <point x="223.0" y="800.0" type="line" smooth="yes"/>
      <point x="143.0" y="800.0"/>
      <point x="103.0" y="760.0"/>
      <point x="103.0" y="680.0" type="curve" smooth="yes"/>
      <point x="103.0" y="600.0" type="line"/>
      <point x="23.0" y="600.0" type="line"/>
      <point x="23.0" y="505.0" type="line"/>
      <point x="103.0" y="505.0" type="line"/>
      <point x="103.0" y="0.0" type="line"/>
    </contour>
  </outline>
</glyph>
<glyph name="g" format="2">
  <advance width="576"/>
  <unicode hex="0067"/>
  <anchor x="283.0" y="600" name="top"/>
  <outline>
    <contour>
      <point x="253.0" y="0.0" type="curve" smooth="yes"/>
      <point x="323.0" y="0.0"/>
      <point x="378.0" y="30.0"/>
      <point x="408.0" y="90.0" type="curve"/>
      <point x="413.0" y="90.0" type="line"/>
      <point x="413.0" y="60.0" type="line" smooth="yes"/>
      <point x="413.0" y="-60.0"/>
      <point x="358.0" y="-120.0"/>
      <point x="273.0" y="-120.0" type="curve" smooth="yes"/>
      <point x="203.0" y="-120.0"/>
      <point x="163.0" y="-85.0"/>
      <point x="148.0" y="-40.0" type="curve"/>
      <point x="53.0" y="-40.0" type="line"/>
      <point x="78.0" y="-140.0"/>
      <point x="148.0" y="-210.0"/>
      <point x="273.0" y="-210.0" type="curve" smooth="yes"/>
      <point x="413.0" y="-210.0"/>
      <point x="503.0" y="-120.0"/>
      <point x="503.0" y="60.0" type="curve" smooth="yes"/>
      <point x="503.0" y="600.0" type="line"/>
      <point x="413.0" y="600.0" type="line"/>
      <point x="413.0" y="510.0" type="line"/>
      <point x="408.0" y="510.0" type="line"/>
      <point x="378.0" y="570.0"/>
      <point x="323.0" y="610.0"/>
      <point x="253.0" y="610.0" type="curve" smooth="yes"/>
      <point x="129.0" y="610.0"/>
      <point x="43.0" y="494.0"/>
      <point x="43.0" y="305.0" type="curve" smooth="yes"/>
      <point x="43.0" y="116.0"/>
      <point x="129.0" y="0.0"/>
    </contour>
    <contour>
      <point x="273.0" y="515.0" type="curve" smooth="yes"/>
      <point x="364.0" y="515.0"/>
      <point x="418.0" y="434.0"/>
      <point x="418.0" y="305.0" type="curve" smooth="yes"/>
      <point x="418.0" y="176.0"/>
      <point x="364.0" y="95.0"/>
      <point x="273.0" y="95.0" type="curve" smooth="yes"/>
      <point x="182.0" y="95.0"/>
      <point x="128.0" y="176.0"/>
      <point x="128.0" y="305.0" type="curve" smooth="yes"/>
      <point x="128.0" y="434.0"/>
      <point x="182.0" y="515.0"/>
    </contour>
  </outline>
</glyph>
<glyph name="i" format="2">
  <advance width="236"/>
  <unicode hex="0069"/>
  <anchor x="163.0" y="0" name="ogonek"/>
  <outline>
    <contour>
      <point x="73.0" y="0.0" type="line"/>
      <point x="163.0" y="0.0" type="line"/>
      <point x="163.0" y="600.0" type="line"/>
      <point x="73.0" y="600.0" type="line"/>
    </contour>
    <contour>
      <point x="73.0" y="690.0" type="line"/>
      <point x="163.0" y="690.0" type="line"/>
      <point x="163.0" y="800.0" type="line"/>
      <point x="73.0" y="800.0" type="line"/>
    </contour>
  </outline>
</glyph>
<glyph name="j" format="2">
  <advance width="236"/>
  <unicode hex="006A"/>
  <outline>
    <contour>
      <point x="73.0" y="690.0" type="line"/>
      <point x="163.0" y="690.0" type="line"/>
      <point x="163.0" y="800.0" type="line"/>
      <point x="73.0" y="800.0" type="line"/>
    </contour>
    <contour>
      <point x="73.0" y="600.0" type="line"/>
      <point x="73.0" y="-65.0" type="line" smooth="yes"/>
      <point x="73.0" y="-95.0"/>
      <point x="63.0" y="-105.0"/>
      <point x="33.0" y="-105.0" type="curve" smooth="yes"/>
      <point x="-27.0" y="-105.0" type="line"/>
      <point x="-27.0" y="-200.0" type="line"/>
      <point x="43.0" y="-200.0" type="line" smooth="yes"/>
      <point x="123.0" y="-200.0"/>
      <point x="163.0" y="-160.0"/>
      <point x="163.0" y="-80.0" type="curve" smooth="yes"/>
      <point x="163.0" y="600.0" type="line"/>
    </contour>
  </outline>
</glyph>
<glyph name="k" format="2">
  <advance width="486"/>
  <unicode hex="006B"/>
  <anchor x="263" y="0" name="bottom"/>
  <outline>
    <contour>
      <point x="73" y="0" type="line"/>
      <point x="163" y="0" type="line"/>
      <point x="163" y="800" type="line"/>
      <point x="73" y="800" type="line"/>
    </contour>
    <contour>
      <point x="383" y="600" type="line"/>
      <point x="73" y="185" type="line"/>
      <point x="163" y="160" type="line"/>
      <point x="493" y="600" type="line"/>
    </contour>
    <contour>
      <point x="393" y="0" type="line"/>
      <point x="493" y="0" type="line"/>
      <point x="313" y="360" type="line"/>
      <point x="223" y="340" type="line"/>
    </contour>
  </outline>
</glyph>
<glyph name="l" format="2">
  <advance width="236"/>
  <unicode hex="006C"/>
  <anchor x="118.0" y="800" name="top"/>
  <anchor x="118.0" y="0" name="bottom"/>
  <anchor x="163.0" y="600" name="caron.alt"/>
  <outline>
    <contour>
      <point x="73.0" y="0.0" type="line"/>
      <point x="163.0" y="0.0" type="line"/>
      <point x="163.0" y="800.0" type="line"/>
      <point x="73.0" y="800.0" type="line"/>
    </contour>
  </outline>
</glyph>
<glyph name="m" format="2">
  <advance width="866"/>
  <unicode hex="006D"/>
  <outline>
    <contour>
      <point x="163.0" y="320.0" type="line" smooth="yes"/>
      <point x="163.0" y="460.0"/>
      <point x="219.0" y="515.0"/>
      <point x="293.0" y="515.0" type="curve" smooth="yes"/>
      <point x="367.0" y="515.0"/>
      <point x="393.0" y="460.0"/>
      <point x="393.0" y="360.0" type="curve" smooth="yes"/>
      <point x="393.0" y="0.0" type="line"/>
      <point x="483.0" y="0.0" type="line"/>
      <point x="483.0" y="400.0" type="line" smooth="yes"/>
      <point x="483.0" y="540.0"/>
      <point x="412.0" y="610.0"/>
      <point x="318.0" y="610.0" type="curve" smooth="yes"/>
      <point x="248.0" y="610.0"/>
      <point x="198.0" y="570.0"/>
      <point x="168.0" y="510.0" type="curve"/>
      <point x="163.0" y="510.0" type="line"/>
      <point x="163.0" y="600.0" type="line"/>
      <point x="73.0" y="600.0" type="line"/>
      <point x="73.0" y="0.0" type="line"/>
      <point x="163.0" y="0.0" type="line"/>
    </contour>
    <contour>
      <point x="483.0" y="320.0" type="line"/>
      <point x="483.0" y="460.0"/>
      <point x="539.0" y="515.0"/>
      <point x="613.0" y="515.0" type="curve" smooth="yes"/>
      <point x="687.0" y="515.0"/>
      <point x="713.0" y="460.0"/>
      <point x="713.0" y="360.0" type="curve" smooth="yes"/>
      <point x="713.0" y="0.0" type="line"/>
      <point x="803.0" y="0.0" type="line"/>
      <point x="803.0" y="400.0" type="line" smooth="yes"/>
      <point x="803.0" y="540.0"/>
      <point x="728.0" y="610.0"/>
      <point x="628.0" y="610.0" type="curve" smooth="yes"/>
      <point x="553.0" y="610.0"/>
      <point x="498.0" y="570.0"/>
      <point x="468.0" y="510.0" type="curve"/>
      <point x="463.0" y="510.0" type="line"/>
      <point x="463.0" y="320.0" type="line"/>
    </contour>
  </outline>
</glyph>
<glyph name="n" format="2">
  <advance width="566"/>
  <unicode hex="006E"/>
  <anchor x="288" y="0" name="bottom"/>
  <anchor x="288" y="600" name="top"/>
  <outline>
    <contour>
      <point x="163" y="320" type="line" smooth="yes"/>
      <point x="163" y="460"/>
      <point x="223" y="515"/>
      <point x="303" y="515" type="curve" smooth="yes"/>
      <point x="383" y="515"/>
      <point x="413" y="460"/>
      <point x="413" y="360" type="curve" smooth="yes"/>
      <point x="413" y="0" type="line"/>
      <point x="503" y="0" type="line"/>
      <point x="503" y="400" type="line" smooth="yes"/>
      <point x="503" y="540"/>
      <point x="428" y="610"/>
      <point x="328" y="610" type="curve" smooth="yes"/>
      <point x="253" y="610"/>
      <point x="198" y="570"/>
      <point x="168" y="510" type="curve"/>
      <point x="163" y="510" type="line"/>
      <point x="163" y="600" type="line"/>
      <point x="73" y="600" type="line"/>
      <point x="73" y="0" type="line"/>
      <point x="163" y="0" type="line"/>
    </contour>
  </outline>
</glyph>
<glyph name="o" format="2">
  <advance width="546"/>
  <unicode hex="006F"/>
  <anchor x="273" y="600" name="top"/>
  <outline>
    <contour>
      <point x="43" y="300" type="curve" smooth="yes"/>
      <point x="43" y="106"/>
      <point x="129" y="-10"/>
      <point x="273" y="-10" type="curve" smooth="yes"/>
      <point x="417" y="-10"/>
      <point x="503" y="106"/>
      <point x="503" y="300" type="curve" smooth="yes"/>
      <point x="503" y="494"/>
      <point x="417" y="610"/>
      <point x="273" y="610" type="curve" smooth="yes"/>
      <point x="129" y="610"/>
      <point x="43" y="494"/>
    </contour>
    <contour>
      <point x="128" y="300" type="curve" smooth="yes"/>
      <point x="128" y="434"/>
      <point x="182" y="515"/>
      <point x="273" y="515" type="curve" smooth="yes"/>
      <point x="364" y="515"/>
      <point x="418" y="434"/>
      <point x="418" y="300" type="curve" smooth="yes"/>
      <point x="418" y="166"/>
      <point x="364" y="85"/>
      <point x="273" y="85" type="curve" smooth="yes"/>
      <point x="182" y="85"/>
      <point x="128" y="166"/>
    </contour>
  </outline>
</glyph>
<glyph name="p" format="2">
  <advance width="576"/>
  <unicode hex="0070"/>
  <outline>
    <contour>
      <point x="73.0" y="600.0" type="line"/>
      <point x="73.0" y="-200.0" type="line"/>
      <point x="163.0" y="-200.0" type="line"/>
      <point x="163.0" y="90.0" type="line"/>
      <point x="168.0" y="90.0" type="line"/>
      <point x="198.0" y="30.0"/>
      <point x="253.0" y="-10.0"/>
      <point x="323.0" y="-10.0" type="curve" smooth="yes"/>
      <point x="447.0" y="-10.0"/>
      <point x="533.0" y="106.0"/>
      <point x="533.0" y="300.0" type="curve" smooth="yes"/>
      <point x="533.0" y="494.0"/>
      <point x="447.0" y="610.0"/>
      <point x="323.0" y="610.0" type="curve" smooth="yes"/>
      <point x="253.0" y="610.0"/>
      <point x="198.0" y="570.0"/>
      <point x="168.0" y="510.0" type="curve"/>
      <point x="163.0" y="510.0" type="line"/>
      <point x="163.0" y="600.0" type="line"/>
    </contour>
    <contour>
      <point x="303.0" y="515.0" type="curve" smooth="yes"/>
      <point x="394.0" y="515.0"/>
      <point x="448.0" y="434.0"/>
      <point x="448.0" y="300.0" type="curve" smooth="yes"/>
      <point x="448.0" y="166.0"/>
      <point x="394.0" y="85.0"/>
      <point x="303.0" y="85.0" type="curve" smooth="yes"/>
      <point x="212.0" y="85.0"/>
      <point x="158.0" y="166.0"/>
      <point x="158.0" y="300.0" type="curve" smooth="yes"/>
      <point x="158.0" y="434.0"/>
      <point x="212.0" y="515.0"/>
    </contour>
  </outline>
</glyph>
<glyph name="q" format="2">
  <advance width="576"/>
  <unicode hex="0071"/>
  <outline>
    <contour>
      <point x="503.0" y="600.0" type="line"/>
      <point x="413.0" y="600.0" type="line"/>
      <point x="413.0" y="510.0" type="line"/>
      <point x="408.0" y="510.0" type="line"/>
      <point x="378.0" y="570.0"/>
      <point x="323.0" y="610.0"/>
      <point x="253.0" y="610.0" type="curve" smooth="yes"/>
      <point x="129.0" y="610.0"/>
      <point x="43.0" y="494.0"/>
      <point x="43.0" y="300.0" type="curve" smooth="yes"/>
      <point x="43.0" y="106.0"/>
      <point x="129.0" y="-10.0"/>
      <point x="253.0" y="-10.0" type="curve" smooth="yes"/>
      <point x="323.0" y="-10.0"/>
      <point x="378.0" y="30.0"/>
      <point x="408.0" y="90.0" type="curve"/>
      <point x="413.0" y="90.0" type="line"/>
      <point x="413.0" y="-200.0" type="line"/>
      <point x="503.0" y="-200.0" type="line"/>
    </contour>
    <contour>
      <point x="273.0" y="515.0" type="curve" smooth="yes"/>
      <point x="364.0" y="515.0"/>
      <point x="418.0" y="434.0"/>
      <point x="418.0" y="300.0" type="curve" smooth="yes"/>
      <point x="418.0" y="166.0"/>
      <point x="364.0" y="85.0"/>
      <point x="273.0" y="85.0" type="curve" smooth="yes"/>
      <point x="182.0" y="85.0"/>
      <point x="128.0" y="166.0"/>
      <point x="128.0" y="300.0" type="curve" smooth="yes"/>
      <point x="128.0" y="434.0"/>
      <point x="182.0" y="515.0"/>
    </contour>
  </outline>
</glyph>
<glyph name="r" format="2">
  <advance width="366"/>
  <unicode hex="0072"/>
  <anchor x="208.0" y="600" name="top"/>
  <outline>
    <contour>
      <point x="163.0" y="500.0" type="line"/>
      <point x="163.0" y="600.0" type="line"/>
      <point x="73.0" y="600.0" type="line"/>
      <point x="73.0" y="0.0" type="line"/>
      <point x="163.0" y="0.0" type="line"/>
      <point x="163.0" y="300.0" type="line" smooth="yes"/>
      <point x="163.0" y="420.0"/>
      <point x="213.0" y="505.0"/>
      <point x="303.0" y="505.0" type="curve" smooth="yes"/>
      <point x="343.0" y="505.0" type="line"/>
      <point x="343.0" y="600.0" type="line"/>
      <point x="303.0" y="600.0" type="line" smooth="yes"/>
      <point x="233.0" y="600.0"/>
      <point x="183.0" y="550.0"/>
      <point x="168.0" y="500.0" type="curve"/>
    </contour>
  </outline>
</glyph>
<glyph name="s" format="2">
  <advance width="471"/>
  <unicode hex="0073"/>
  <anchor x="238.0" y="600" name="top"/>
  <anchor x="238.0" y="0" name="bottom"/>
  <outline>
    <contour>
      <point x="33.0" y="180.0" type="line"/>
      <point x="33.0" y="80.0"/>
      <point x="108.0" y="-10.0"/>
      <point x="238.0" y="-10.0" type="curve" smooth="yes"/>
      <point x="368.0" y="-10.0"/>
      <point x="438.0" y="80.0"/>
      <point x="438.0" y="160.0" type="curve" smooth="yes"/>
      <point x="438.0" y="250.0"/>
      <point x="398.0" y="310.0"/>
      <point x="238.0" y="350.0" type="curve" smooth="yes"/>
      <point x="158.0" y="370.0"/>
      <point x="128.0" y="400.0"/>
      <point x="128.0" y="440.0" type="curve" smooth="yes"/>
      <point x="128.0" y="480.0"/>
      <point x="168.0" y="515.0"/>
      <point x="238.0" y="515.0" type="curve" smooth="yes"/>
      <point x="308.0" y="515.0"/>
      <point x="348.0" y="480.0"/>
      <point x="348.0" y="420.0" type="curve"/>
      <point x="438.0" y="420.0" type="line"/>
      <point x="438.0" y="520.0"/>
      <point x="363.0" y="610.0"/>
      <point x="238.0" y="610.0" type="curve" smooth="yes"/>
      <point x="113.0" y="610.0"/>
      <point x="43.0" y="520.0"/>
      <point x="43.0" y="440.0" type="curve" smooth="yes"/>
      <point x="43.0" y="350.0"/>
      <point x="78.0" y="295.0"/>
      <point x="238.0" y="255.0" type="curve" smooth="yes"/>
      <point x="318.0" y="235.0"/>
      <point x="353.0" y="200.0"/>
      <point x="353.0" y="160.0" type="curve" smooth="yes"/>
      <point x="353.0" y="120.0"/>
      <point x="313.0" y="85.0"/>
      <point x="238.0" y="85.0" type="curve" smooth="yes"/>
      <point x="163.0" y="85.0"/>
      <point x="123.0" y="120.0"/>
      <point x="123.0" y="180.0" type="curve"/>
    </contour>
  </outline>
</glyph>
<glyph name="t" format="2">
  <advance width="336"/>
  <unicode hex="0074"/>
  <anchor x="193" y="600" name="caron.alt"/>
  <anchor x="203" y="0" name="bottom"/>
  <outline>
    <contour>
      <point x="23" y="600" type="line"/>
      <point x="23" y="505" type="line"/>
      <point x="103" y="505" type="line"/>
      <point x="103" y="120" type="line" smooth="yes"/>
      <point x="103" y="40"/>
      <point x="143" y="0"/>
      <point x="223" y="0" type="curve" smooth="yes"/>
      <point x="303" y="0" type="line"/>
      <point x="303" y="95" type="line"/>
      <point x="233" y="95" type="line" smooth="yes"/>
      <point x="203" y="95"/>
      <point x="193" y="105"/>
      <point x="193" y="135" type="curve" smooth="yes"/>
      <point x="193" y="505" type="line"/>
      <point x="303" y="505" type="line"/>
      <point x="303" y="600" type="line"/>
      <point x="193" y="600" type="line"/>
      <point x="193" y="750" type="line"/>
      <point x="103" y="750" type="line"/>
      <point x="103" y="600" type="line"/>
    </contour>
  </outline>
</glyph>
<glyph name="u" format="2">
  <advance width="566"/>
  <unicode hex="0075"/>
  <anchor x="278.0" y="600" name="top"/>
  <anchor x="493.0" y="0" name="ogonek"/>
  <outline>
    <contour>
      <point x="403.0" y="280.0" type="line" smooth="yes"/>
      <point x="403.0" y="140.0"/>
      <point x="343.0" y="85.0"/>
      <point x="263.0" y="85.0" type="curve" smooth="yes"/>
      <point x="183.0" y="85.0"/>
      <point x="153.0" y="140.0"/>
      <point x="153.0" y="240.0" type="curve" smooth="yes"/>
      <point x="153.0" y="600.0" type="line"/>
      <point x="63.0" y="600.0" type="line"/>
      <point x="63.0" y="200.0" type="line" smooth="yes"/>
      <point x="63.0" y="60.0"/>
      <point x="138.0" y="-10.0"/>
      <point x="238.0" y="-10.0" type="curve" smooth="yes"/>
      <point x="313.0" y="-10.0"/>
      <point x="368.0" y="30.0"/>
      <point x="398.0" y="90.0" type="curve"/>
      <point x="403.0" y="90.0" type="line"/>
      <point x="403.0" y="0.0" type="line"/>
      <point x="493.0" y="0.0" type="line"/>
      <point x="493.0" y="600.0" type="line"/>
      <point x="403.0" y="600.0" type="line"/>
    </contour>
  </outline>
</glyph>
<glyph name="v" format="2">
  <advance width="500"/>
  <unicode hex="0076"/>
  <outline>
    <contour>
      <point x="195" y="0" type="line"/>
      <point x="305" y="0" type="line"/>
      <point x="497" y="600" type="line"/>
      <point x="405" y="600" type="line"/>
      <point x="273" y="180" type="line"/>
      <point x="255" y="120" type="line"/>
      <point x="247" y="120" type="line"/>
      <point x="229" y="180" type="line"/>
      <point x="97" y="600" type="line"/>
      <point x="3" y="600" type="line"/>
    </contour>
  </outline>
</glyph>
<glyph name="w" format="2">
  <advance width="706"/>
  <unicode hex="0077"/>
  <anchor x="353.0" y="600" name="top"/>
  <outline>
    <contour>
      <point x="148.0" y="0.0" type="line"/>
      <point x="248.0" y="0.0" type="line"/>
      <point x="338.0" y="390.0" type="line"/>
      <point x="349.0" y="450.0" type="line"/>
      <point x="357.0" y="450.0" type="line"/>
      <point x="368.0" y="390.0" type="line"/>
      <point x="458.0" y="0.0" type="line"/>
      <point x="558.0" y="0.0" type="line"/>
      <point x="698.0" y="600.0" type="line"/>
      <point x="608.0" y="600.0" type="line"/>
      <point x="523.0" y="210.0" type="line"/>
      <point x="512.0" y="150.0" type="line"/>
      <point x="504.0" y="150.0" type="line"/>
      <point x="493.0" y="210.0" type="line"/>
      <point x="403.0" y="600.0" type="line"/>
      <point x="303.0" y="600.0" type="line"/>
      <point x="213.0" y="210.0" type="line"/>
      <point x="202.0" y="150.0" type="line"/>
      <point x="194.0" y="150.0" type="line"/>
      <point x="183.0" y="210.0" type="line"/>
      <point x="98.0" y="600.0" type="line"/>
      <point x="8.0" y="600.0" type="line"/>
    </contour>
  </outline>
</glyph>
<glyph name="x" format="2">
  <advance width="466"/>
  <unicode hex="0078"/>
  <outline>
    <contour>
      <point x="203.0" y="360.0" type="line"/>
      <point x="263.0" y="360.0" type="line"/>
      <point x="263.0" y="388.0" type="line"/>
      <point x="203.0" y="388.0" type="line"/>
    </contour>
    <contour>
      <point x="203.0" y="230.0" type="line"/>
      <point x="263.0" y="230.0" type="line"/>
      <point x="263.0" y="300.0" type="line"/>
      <point x="203.0" y="300.0" type="line"/>
    </contour>
    <contour>
      <point x="3.0" y="0.0" type="line"/>
      <point x="103.0" y="0.0" type="line"/>
      <point x="266.0" y="300.0" type="line"/>
      <point x="266.0" y="360.0" type="line"/>
      <point x="203.0" y="360.0" type="line"/>
    </contour>
    <contour>
      <point x="353.0" y="600.0" type="line"/>
      <point x="223.0" y="360.0" type="line"/>
      <point x="223.0" y="300.0" type="line"/>
      <point x="286.0" y="300.0" type="line"/>
      <point x="453.0" y="600.0" type="line"/>
    </contour>
    <contour>
      <point x="463.0" y="0.0" type="line"/>
      <point x="263.0" y="360.0" type="line"/>
      <point x="198.0" y="360.0" type="line"/>
      <point x="198.0" y="300.0" type="line"/>
      <point x="361.0" y="0.0" type="line"/>
    </contour>
    <contour>
      <point x="115.0" y="600.0" type="line"/>
      <point x="13.0" y="600.0" type="line"/>
      <point x="180.0" y="300.0" type="line"/>
      <point x="245.0" y="300.0" type="line"/>
      <point x="245.0" y="360.0" type="line"/>
    </contour>
  </outline>
</glyph>
<glyph name="y" format="2">
  <advance width="500"/>
  <unicode hex="0079"/>
  <anchor x="245" y="600" name="top"/>
  <outline>
    <contour>
      <point x="195" y="0" type="line" smooth="yes"/>
      <point x="200" y="-15"/>
      <point x="203" y="-30"/>
      <point x="203" y="-45" type="curve" smooth="yes"/>
      <point x="203" y="-85"/>
      <point x="183" y="-105"/>
      <point x="143" y="-105" type="curve" smooth="yes"/>
      <point x="93" y="-105" type="line"/>
      <point x="93" y="-200" type="line"/>
      <point x="143" y="-200" type="line" smooth="yes"/>
      <point x="223" y="-200"/>
      <point x="253" y="-160"/>
      <point x="279" y="-80" type="curve" smooth="yes"/>
      <point x="497" y="600" type="line"/>
      <point x="405" y="600" type="line"/>
      <point x="273" y="180" type="line"/>
      <point x="255" y="120" type="line"/>
      <point x="247" y="120" type="line"/>
      <point x="229" y="180" type="line"/>
      <point x="97" y="600" type="line"/>
      <point x="3" y="600" type="line"/>
    </contour>
  </outline>
</glyph>
<glyph name="z" format="2">
  <advance width="466"/>
  <unicode hex="007A"/>
  <anchor x="238.0" y="600" name="top"/>
  <outline>
    <contour>
      <point x="33.0" y="0.0" type="line"/>
      <point x="433.0" y="0.0" type="line"/>
      <point x="433.0" y="95.0" type="line"/>
      <point x="143.0" y="95.0" type="line"/>
      <point x="433.0" y="515.0" type="line"/>
      <point x="433.0" y="600.0" type="line"/>
      <point x="43.0" y="600.0" type="line"/>
      <point x="43.0" y="505.0" type="line"/>
      <point x="323.0" y="505.0" type="line"/>
      <point x="33.0" y="85.0" type="line"/>
    </contour>
  </outline>
</glyph>
<glyph name="braceleft" format="2">
  <advance width="340"/>
  <unicode hex="007B"/>
  <outline>
    <contour>
      <point x="100" y="300" type="line"/>
      <point x="187" y="300"/>
      <point x="230" y="340"/>
      <point x="230" y="420" type="curve" smooth="yes"/>
      <point x="230" y="650" type="line" smooth="yes"/>
      <point x="230" y="690"/>
      <point x="250" y="710"/>
      <point x="290.0" y="710.0" type="curve" smooth="yes"/>
      <point x="320" y="710" type="line"/>
      <point x="320" y="800" type="line"/>
      <point x="270.0" y="800.0" type="line" smooth="yes"/>
      <point x="190" y="800"/>
      <point x="150" y="750"/>
      <point x="150" y="660" type="curve" smooth="yes"/>
      <point x="150" y="420" type="line" smooth="yes"/>
      <point x="150" y="380"/>
      <point x="130" y="360"/>
      <point x="90" y="360" type="curve" smooth="yes"/>
      <point x="50" y="360" type="line"/>
      <point x="50" y="240" type="line"/>
      <point x="90" y="240" type="line" smooth="yes"/>
      <point x="130" y="240"/>
      <point x="150" y="220"/>
      <point x="150" y="180" type="curve" smooth="yes"/>
      <point x="150" y="-60" type="line" smooth="yes"/>
      <point x="150" y="-150"/>
      <point x="190" y="-200"/>
      <point x="270.0" y="-200.0" type="curve" smooth="yes"/>
      <point x="320" y="-200" type="line"/>
      <point x="320" y="-110" type="line"/>
      <point x="290.0" y="-110.0" type="line" smooth="yes"/>
      <point x="250" y="-110"/>
      <point x="230" y="-90"/>
      <point x="230" y="-50" type="curve" smooth="yes"/>
      <point x="230" y="180" type="line" smooth="yes"/>
      <point x="230" y="260"/>
      <point x="187" y="300"/>
      <point x="100" y="300" type="curve"/>
    </contour>
    <contour>
      <point x="88.0" y="280.0" type="line"/>
      <point x="140.0" y="280.0" type="line"/>
      <point x="140.0" y="320.0" type="line"/>
      <point x="88.0" y="320.0" type="line"/>
    </contour>
  </outline>
</glyph>
<glyph name="asciitilde" format="2">
  <advance width="600"/>
  <unicode hex="007E"/>
  <outline>
    <contour>
      <point x="60" y="300" type="curve" smooth="yes"/>
      <point x="60" y="230" type="line"/>
      <point x="150" y="230" type="line"/>
      <point x="150" y="300" type="line" smooth="yes"/>
      <point x="150" y="354"/>
      <point x="164" y="380"/>
      <point x="200" y="380" type="curve" smooth="yes"/>
      <point x="264" y="380"/>
      <point x="285" y="230"/>
      <point x="410" y="230" type="curve" smooth="yes"/>
      <point x="510" y="230"/>
      <point x="540" y="310"/>
      <point x="540" y="400" type="curve" smooth="yes"/>
      <point x="540" y="470" type="line"/>
      <point x="450" y="470" type="line"/>
      <point x="450" y="400" type="line" smooth="yes"/>
      <point x="450" y="346"/>
      <point x="436" y="320"/>
      <point x="400" y="320" type="curve" smooth="yes"/>
      <point x="336" y="320"/>
      <point x="315" y="470"/>
      <point x="190" y="470" type="curve" smooth="yes"/>
      <point x="90" y="470"/>
      <point x="60" y="390"/>
    </contour>
  </outline>
</glyph>
<glyph name="exclamdown" format="2">
  <advance width="260"/>
  <unicode hex="00A1"/>
  <outline>
    <contour>
      <point x="170" y="380" type="line"/>
      <point x="90" y="380" type="line"/>
      <point x="80" y="-200" type="line"/>
      <point x="180" y="-200" type="line"/>
    </contour>
    <contour>
      <point x="185" y="600" type="line"/>
      <point x="75" y="600" type="line"/>
      <point x="75" y="480" type="line"/>
      <point x="185" y="480" type="line"/>
    </contour>
  </outline>
</glyph>
<glyph name="copyright" format="2">
  <advance width="800"/>
  <unicode hex="00A9"/>
  <outline>
    <contour>
      <point x="400" y="810" type="curve" smooth="yes"/>
      <point x="200" y="810"/>
      <point x="60" y="640"/>
      <point x="60" y="400" type="curve" smooth="yes"/>
      <point x="60" y="160"/>
      <point x="200" y="-10"/>
      <point x="400" y="-10" type="curve" smooth="yes"/>
      <point x="600" y="-10"/>
      <point x="740" y="160"/>
      <point x="740" y="400" type="curve" smooth="yes"/>
      <point x="740" y="640"/>
      <point x="600" y="810"/>
    </contour>
    <contour>
      <point x="400" y="735" type="curve" smooth="yes"/>
      <point x="560" y="735"/>
      <point x="670" y="600"/>
      <point x="670" y="400" type="curve" smooth="yes"/>
      <point x="670" y="200"/>
      <point x="560" y="65"/>
      <point x="400" y="65" type="curve" smooth="yes"/>
      <point x="240" y="65"/>
      <point x="130" y="200"/>
      <point x="130" y="400" type="curve" smooth="yes"/>
      <point x="130" y="600"/>
      <point x="240" y="735"/>
    </contour>
    <contour>
      <point x="400" y="630" type="curve" smooth="yes"/>
      <point x="294" y="630"/>
      <point x="230" y="544"/>
      <point x="230" y="400" type="curve" smooth="yes"/>
      <point x="230" y="256"/>
      <point x="294" y="170"/>
      <point x="400" y="170" type="curve" smooth="yes"/>
      <point x="488" y="170"/>
      <point x="548" y="230"/>
      <point x="565" y="333" type="curve"/>
      <point x="493" y="333" type="line"/>
      <point x="480" y="277"/>
      <point x="448" y="245"/>
      <point x="400" y="245" type="curve" smooth="yes"/>
      <point x="337" y="245"/>
      <point x="300" y="304"/>
      <point x="300" y="400" type="curve" smooth="yes"/>
      <point x="300" y="496"/>
      <point x="337" y="555"/>
      <point x="400" y="555" type="curve" smooth="yes"/>
      <point x="448" y="555"/>
      <point x="480" y="523"/>
      <point x="493" y="467" type="curve"/>
      <point x="565" y="467" type="line"/>
      <point x="548" y="570"/>
      <point x="488" y="630"/>
    </contour>
  </outline>
</glyph>
<glyph name="registered" format="2">
  <advance width="800"/>
  <unicode hex="00AE"/>
  <outline>
    <contour>
      <point x="395" y="545" type="line" smooth="yes"/>
      <point x="449" y="545"/>
      <point x="480" y="525"/>
      <point x="480" y="485" type="curve" smooth="yes"/>
      <point x="480" y="445"/>
      <point x="449" y="425"/>
      <point x="395" y="425" type="curve" smooth="yes"/>
      <point x="340" y="425" type="line"/>
      <point x="340" y="545" type="line"/>
    </contour>
    <contour>
      <point x="270" y="180" type="line"/>
      <point x="340" y="180" type="line"/>
      <point x="340" y="350" type="line"/>
      <point x="395" y="350" type="line" smooth="yes"/>
      <point x="445" y="350"/>
      <point x="470" y="330"/>
      <point x="470" y="290" type="curve" smooth="yes"/>
      <point x="470" y="230" type="line" smooth="yes"/>
      <point x="470" y="214"/>
      <point x="471" y="196"/>
      <point x="478" y="180" type="curve"/>
      <point x="550" y="180" type="line"/>
      <point x="543" y="196"/>
      <point x="540" y="214"/>
      <point x="540" y="230" type="curve" smooth="yes"/>
      <point x="540" y="290" type="line" smooth="yes"/>
      <point x="540" y="362"/>
      <point x="494" y="400"/>
      <point x="405" y="400" type="curve"/>
      <point x="394" y="370" type="line"/>
      <point x="494" y="370"/>
      <point x="550" y="415"/>
      <point x="550" y="495" type="curve" smooth="yes"/>
      <point x="550" y="575"/>
      <point x="494" y="620"/>
      <point x="395" y="620" type="curve" smooth="yes"/>
      <point x="270" y="620" type="line"/>
    </contour>
    <contour>
      <point x="400" y="810" type="curve" smooth="yes"/>
      <point x="200" y="810"/>
      <point x="60" y="640"/>
      <point x="60" y="400" type="curve" smooth="yes"/>
      <point x="60" y="160"/>
      <point x="200" y="-10"/>
      <point x="400" y="-10" type="curve" smooth="yes"/>
      <point x="600" y="-10"/>
      <point x="740" y="160"/>
      <point x="740" y="400" type="curve" smooth="yes"/>
      <point x="740" y="640"/>
      <point x="600" y="810"/>
    </contour>
    <contour>
      <point x="400" y="735" type="curve" smooth="yes"/>
      <point x="560" y="735"/>
      <point x="670" y="600"/>
      <point x="670" y="400" type="curve" smooth="yes"/>
      <point x="670" y="200"/>
      <point x="560" y="65"/>
      <point x="400" y="65" type="curve" smooth="yes"/>
      <point x="240" y="65"/>
      <point x="130" y="200"/>
      <point x="130" y="400" type="curve" smooth="yes"/>
      <point x="130" y="600"/>
      <point x="240" y="735"/>
    </contour>
  </outline>
</glyph>
<glyph name="periodcentered" format="2">
  <advance width="250"/>
  <unicode hex="00B7"/>
  <outline>
    <contour>
      <point x="70" y="340" type="line"/>
      <point x="180" y="340" type="line"/>
      <point x="180" y="460" type="line"/>
      <point x="70" y="460" type="line"/>
    </contour>
  </outline>
</glyph>
<glyph name="ordmasculine" format="2">
  <advance width="410"/>
  <unicode hex="00BA"/>
  <outline>
    <contour>
      <point x="50" y="600" type="curve" smooth="yes"/>
      <point x="50" y="468"/>
      <point x="110" y="390"/>
      <point x="205.0" y="390.0" type="curve" smooth="yes"/>
      <point x="300" y="390"/>
      <point x="360" y="468"/>
      <point x="360" y="600" type="curve" smooth="yes"/>
      <point x="360" y="732"/>
      <point x="300" y="810"/>
      <point x="205.0" y="810.0" type="curve" smooth="yes"/>
      <point x="110" y="810"/>
      <point x="50" y="732"/>
    </contour>
    <contour>
      <point x="120" y="600" type="curve" smooth="yes"/>
      <point x="120" y="684"/>
      <point x="145" y="735"/>
      <point x="205" y="735" type="curve" smooth="yes"/>
      <point x="265" y="735"/>
      <point x="290" y="684"/>
      <point x="290" y="600" type="curve" smooth="yes"/>
      <point x="290" y="516"/>
      <point x="265" y="465"/>
      <point x="205" y="465" type="curve" smooth="yes"/>
      <point x="145" y="465"/>
      <point x="120" y="516"/>
    </contour>
  </outline>
</glyph>
<glyph name="guillemetright" format="2">
  <advance width="700"/>
  <unicode hex="00BB"/>
  <outline>
    <contour>
      <point x="350" y="50" type="line"/>
      <point x="650" y="250" type="line"/>
      <point x="650" y="340" type="line"/>
      <point x="350" y="150" type="line"/>
    </contour>
    <contour>
      <point x="350" y="448" type="line"/>
      <point x="650" y="258" type="line"/>
      <point x="650" y="350" type="line"/>
      <point x="350" y="550" type="line"/>
    </contour>
    <contour>
      <point x="50" y="50" type="line"/>
      <point x="350" y="250" type="line"/>
      <point x="350" y="340" type="line"/>
      <point x="50" y="150" type="line"/>
    </contour>
    <contour>
      <point x="50" y="448" type="line"/>
      <point x="350" y="258" type="line"/>
      <point x="350" y="350" type="line"/>
      <point x="50" y="550" type="line"/>
    </contour>
  </outline>
</glyph>
<glyph name="questiondown" format="2">
  <advance width="540"/>
  <unicode hex="00BF"/>
  <outline>
    <contour>
      <point x="150" y="10" type="curve" smooth="yes"/>
      <point x="150" y="130"/>
      <point x="330" y="170"/>
      <point x="330" y="330" type="curve" smooth="yes"/>
      <point x="330" y="380" type="line"/>
      <point x="240" y="380" type="line"/>
      <point x="240" y="330" type="line" smooth="yes"/>
      <point x="240" y="210"/>
      <point x="65" y="170"/>
      <point x="65" y="10" type="curve" smooth="yes"/>
      <point x="65" y="-90"/>
      <point x="130" y="-210"/>
      <point x="280" y="-210" type="curve" smooth="yes"/>
      <point x="430" y="-210"/>
      <point x="500" y="-90"/>
      <point x="500" y="30" type="curve"/>
      <point x="410" y="30" type="line"/>
      <point x="410" y="-50"/>
      <point x="370" y="-110"/>
      <point x="280" y="-110" type="curve" smooth="yes"/>
      <point x="190" y="-110"/>
      <point x="150" y="-50"/>
    </contour>
    <contour>
      <point x="340" y="600" type="line"/>
      <point x="230" y="600" type="line"/>
      <point x="230" y="480" type="line"/>
      <point x="340" y="480" type="line"/>
    </contour>
  </outline>
</glyph>
<glyph name="Acircumflex" format="2">
  <advance width="636"/>
  <unicode hex="00C2"/>
  <outline>
    <contour>
      <point x="3" y="0" type="line"/>
      <point x="97" y="0" type="line"/>
      <point x="288" y="600" type="line"/>
      <point x="312" y="680" type="line"/>
      <point x="322" y="680" type="line"/>
      <point x="346" y="600" type="line"/>
      <point x="537" y="0" type="line"/>
      <point x="633" y="0" type="line"/>
      <point x="373" y="800" type="line"/>
      <point x="263" y="800" type="line"/>
    </contour>
    <contour>
      <point x="153" y="220" type="line"/>
      <point x="473" y="220" type="line"/>
      <point x="473" y="320" type="line"/>
      <point x="153" y="320" type="line"/>
    </contour>
    <contour>
      <point x="163" y="800" type="line"/>
      <point x="263" y="800" type="line"/>
      <point x="343" y="900" type="line"/>
      <point x="253" y="900" type="line"/>
    </contour>
    <contour>
      <point x="473" y="800" type="line"/>
      <point x="383" y="900" type="line"/>
      <point x="293" y="900" type="line"/>
      <point x="373" y="800" type="line"/>
    </contour>
  </outline>
</glyph>
<glyph name="Adieresis" format="2">
  <advance width="636"/>
  <unicode hex="00C4"/>
  <outline>
    <contour>
      <point x="3" y="0" type="line"/>
      <point x="97" y="0" type="line"/>
      <point x="288" y="600" type="line"/>
      <point x="312" y="680" type="line"/>
      <point x="322" y="680" type="line"/>
      <point x="346" y="600" type="line"/>
      <point x="537" y="0" type="line"/>
      <point x="633" y="0" type="line"/>
      <point x="373" y="800" type="line"/>
      <point x="263" y="800" type="line"/>
    </contour>
    <contour>
      <point x="153" y="220" type="line"/>
      <point x="473" y="220" type="line"/>
      <point x="473" y="320" type="line"/>
      <point x="153" y="320" type="line"/>
    </contour>
    <contour>
      <point x="173" y="800" type="line"/>
      <point x="263" y="800" type="line"/>
      <point x="263" y="900" type="line"/>
      <point x="173" y="900" type="line"/>
    </contour>
    <contour>
      <point x="373" y="800" type="line"/>
      <point x="463" y="800" type="line"/>
      <point x="463" y="900" type="line"/>
      <point x="373" y="900" type="line"/>
    </contour>
  </outline>
</glyph>
<glyph name="AE" format="2">
  <advance width="916"/>
  <unicode hex="00C6"/>
  <outline>
    <contour>
      <point x="3" y="0" type="line"/>
      <point x="97" y="0" type="line"/>
      <point x="320" y="700" type="line"/>
      <point x="443" y="700" type="line"/>
      <point x="443" y="800" type="line"/>
      <point x="263" y="800" type="line"/>
    </contour>
    <contour>
      <point x="153" y="220" type="line"/>
      <point x="473" y="220" type="line"/>
      <point x="473" y="320" type="line"/>
      <point x="153" y="320" type="line"/>
    </contour>
    <contour>
      <point x="423" y="0" type="line"/>
      <point x="873" y="0" type="line"/>
      <point x="873" y="100" type="line"/>
      <point x="513" y="100" type="line"/>
      <point x="513" y="360" type="line"/>
      <point x="837" y="360" type="line"/>
      <point x="837" y="460" type="line"/>
      <point x="513" y="460" type="line"/>
      <point x="513" y="700" type="line"/>
      <point x="861" y="700" type="line"/>
      <point x="861" y="800" type="line"/>
      <point x="423" y="800" type="line"/>
    </contour>
  </outline>
</glyph>
<glyph name="germandbls" format="2">
  <advance width="586"/>
  <unicode hex="00DF"/>
  <outline>
    <contour>
      <point x="233" y="0" type="line"/>
      <point x="273" y="0" type="line" smooth="yes"/>
      <point x="453" y="0"/>
      <point x="543" y="80"/>
      <point x="543" y="220" type="curve" smooth="yes"/>
      <point x="543" y="360"/>
      <point x="453" y="440"/>
      <point x="273" y="440" type="curve"/>
      <point x="273" y="380" type="line"/>
      <point x="443" y="380"/>
      <point x="528" y="460"/>
      <point x="528" y="590" type="curve" smooth="yes"/>
      <point x="528" y="720"/>
      <point x="443" y="810"/>
      <point x="303" y="810" type="curve" smooth="yes"/>
      <point x="163" y="810"/>
      <point x="73" y="720"/>
      <point x="73" y="580" type="curve" smooth="yes"/>
      <point x="73" y="0" type="line"/>
      <point x="163" y="0" type="line"/>
      <point x="163" y="580" type="line" smooth="yes"/>
      <point x="163" y="660"/>
      <point x="218" y="710"/>
      <point x="303" y="710" type="curve" smooth="yes"/>
      <point x="388" y="710"/>
      <point x="443" y="660"/>
      <point x="443" y="580" type="curve" smooth="yes"/>
      <point x="443" y="500"/>
      <point x="388" y="460"/>
      <point x="273" y="460" type="curve" smooth="yes"/>
      <point x="233" y="460" type="line"/>
      <point x="233" y="360" type="line"/>
      <point x="273" y="360" type="line" smooth="yes"/>
      <point x="383" y="360"/>
      <point x="458" y="315"/>
      <point x="458" y="230" type="curve" smooth="yes"/>
      <point x="458" y="145"/>
      <point x="383" y="100"/>
      <point x="273" y="100" type="curve" smooth="yes"/>
      <point x="233" y="100" type="line"/>
    </contour>
  </outline>
</glyph>
<glyph name="ae" format="2">
  <advance width="881"/>
  <unicode hex="00E6"/>
  <outline>
    <contour>
      <point x="438" y="265" type="line"/>
      <point x="836" y="265" type="line"/>
      <point x="837" y="275"/>
      <point x="838" y="290"/>
      <point x="838" y="300" type="curve" smooth="yes"/>
      <point x="838" y="494"/>
      <point x="752" y="610"/>
      <point x="618" y="610" type="curve" smooth="yes"/>
      <point x="484" y="610"/>
      <point x="398" y="494"/>
      <point x="398" y="300" type="curve" smooth="yes"/>
      <point x="398" y="106"/>
      <point x="484" y="-10"/>
      <point x="618" y="-10" type="curve" smooth="yes"/>
      <point x="723" y="-10"/>
      <point x="793" y="60"/>
      <point x="823" y="180" type="curve"/>
      <point x="733" y="180" type="line"/>
      <point x="713" y="120"/>
      <point x="668" y="85"/>
      <point x="608" y="85" type="curve" smooth="yes"/>
      <point x="517" y="85"/>
      <point x="463" y="166"/>
      <point x="463" y="300" type="curve" smooth="yes"/>
      <point x="463" y="434"/>
      <point x="517" y="515"/>
      <point x="608" y="515" type="curve" smooth="yes"/>
      <point x="699" y="515"/>
      <point x="753" y="434"/>
      <point x="753" y="300" type="curve"/>
      <point x="808" y="355" type="line"/>
      <point x="438" y="355" type="line"/>
    </contour>
    <contour>
      <point x="253" y="610" type="curve" smooth="yes"/>
      <point x="148" y="610"/>
      <point x="67" y="540"/>
      <point x="53" y="420" type="curve"/>
      <point x="143" y="420" type="line"/>
      <point x="150" y="480"/>
      <point x="198" y="515"/>
      <point x="263" y="515" type="curve" smooth="yes"/>
      <point x="328" y="515"/>
      <point x="373" y="480"/>
      <point x="373" y="430" type="curve" smooth="yes"/>
      <point x="373" y="330"/>
      <point x="43" y="400"/>
      <point x="43" y="160" type="curve" smooth="yes"/>
      <point x="43" y="60"/>
      <point x="118" y="-10"/>
      <point x="218" y="-10" type="curve" smooth="yes"/>
      <point x="318" y="-10"/>
      <point x="423" y="60"/>
      <point x="443" y="220" type="curve"/>
      <point x="443" y="400" type="line" smooth="yes"/>
      <point x="443" y="540"/>
      <point x="358" y="610"/>
    </contour>
    <contour>
      <point x="233" y="85" type="curve" smooth="yes"/>
      <point x="163" y="85"/>
      <point x="128" y="120"/>
      <point x="128" y="170" type="curve" smooth="yes"/>
      <point x="128" y="270"/>
      <point x="293" y="270"/>
      <point x="373" y="310" type="curve"/>
      <point x="373" y="220" type="line" smooth="yes"/>
      <point x="373" y="140"/>
      <point x="303" y="85"/>
    </contour>
  </outline>
</glyph>
<glyph name="eth" format="2">
  <advance width="546"/>
  <unicode hex="00F0"/>
  <outline>
    <contour>
      <point x="113" y="640" type="line"/>
      <point x="433" y="730" type="line"/>
      <point x="433" y="800" type="line"/>
      <point x="113" y="710" type="line"/>
    </contour>
    <contour>
      <point x="503" y="300" type="curve" smooth="yes"/>
      <point x="503" y="500"/>
      <point x="403" y="680"/>
      <point x="243" y="800" type="curve"/>
      <point x="123" y="800" type="line"/>
      <point x="233" y="720"/>
      <point x="308" y="650"/>
      <point x="348" y="570" type="curve"/>
      <point x="343" y="565" type="line"/>
      <point x="323" y="585"/>
      <point x="293" y="610"/>
      <point x="243" y="610" type="curve" smooth="yes"/>
      <point x="129" y="610"/>
      <point x="43" y="494"/>
      <point x="43" y="300" type="curve" smooth="yes"/>
      <point x="43" y="106"/>
      <point x="129" y="-10"/>
      <point x="273" y="-10" type="curve" smooth="yes"/>
      <point x="417" y="-10"/>
      <point x="503" y="106"/>
    </contour>
    <contour>
      <point x="128" y="300" type="curve" smooth="yes"/>
      <point x="128" y="434"/>
      <point x="182" y="515"/>
      <point x="273" y="515" type="curve" smooth="yes"/>
      <point x="364" y="515"/>
      <point x="418" y="434"/>
      <point x="418" y="300" type="curve" smooth="yes"/>
      <point x="418" y="166"/>
      <point x="364" y="85"/>
      <point x="273" y="85" type="curve" smooth="yes"/>
      <point x="182" y="85"/>
      <point x="128" y="166"/>
    </contour>
  </outline>
</glyph>
<glyph name="eogonek" format="2">
  <advance width="546"/>
  <unicode hex="0119"/>
  <outline>
    <contour>
      <point x="413" y="30" type="curve" smooth="yes"/>
      <point x="453" y="90"/>
      <point x="473" y="120"/>
      <point x="488" y="180" type="curve"/>
      <point x="398" y="180" type="line"/>
      <point x="378" y="120"/>
      <point x="333" y="85"/>
      <point x="273" y="85" type="curve" smooth="yes"/>
      <point x="182" y="85"/>
      <point x="128" y="166"/>
      <point x="128" y="300" type="curve" smooth="yes"/>
      <point x="128" y="434"/>
      <point x="182" y="515"/>
      <point x="273" y="515" type="curve" smooth="yes"/>
      <point x="364" y="515"/>
      <point x="418" y="434"/>
      <point x="418" y="300" type="curve"/>
      <point x="473" y="355" type="line"/>
      <point x="103" y="355" type="line"/>
      <point x="103" y="265" type="line"/>
      <point x="501" y="265" type="line"/>
      <point x="502" y="275"/>
      <point x="503" y="290"/>
      <point x="503" y="300" type="curve" smooth="yes"/>
      <point x="503" y="494"/>
      <point x="417" y="610"/>
      <point x="273" y="610" type="curve" smooth="yes"/>
      <point x="129" y="610"/>
      <point x="43" y="494"/>
      <point x="43" y="300" type="curve" smooth="yes"/>
      <point x="43" y="106"/>
      <point x="129" y="-10"/>
      <point x="273" y="-10" type="curve" smooth="yes"/>
      <point x="295" y="-10"/>
      <point x="315" y="-6"/>
      <point x="335" y="0" type="curve"/>
      <point x="338" y="-5" type="line"/>
      <point x="298" y="-45"/>
      <point x="283" y="-80"/>
      <point x="283" y="-110" type="curve" smooth="yes"/>
      <point x="283" y="-170"/>
      <point x="323" y="-200"/>
      <point x="403" y="-200" type="curve"/>
      <point x="403" y="-140" type="line"/>
      <point x="363" y="-140"/>
      <point x="343" y="-130"/>
      <point x="343" y="-100" type="curve" smooth="yes"/>
      <point x="343" y="-70"/>
      <point x="373" y="-30"/>
    </contour>
  </outline>
</glyph>
<glyph name="gcommaaccent" format="2">
  <advance width="576"/>
  <unicode hex="0123"/>
  <outline>
    <contour>
      <point x="300" y="650" type="line"/>
      <point x="300" y="660" type="line" smooth="yes"/>
      <point x="300" y="710"/>
      <point x="310" y="740"/>
      <point x="350" y="740" type="curve"/>
      <point x="350" y="800" type="line"/>
      <point x="280" y="800"/>
      <point x="250" y="750"/>
      <point x="250" y="660" type="curve" smooth="yes"/>
      <point x="250" y="650" type="line"/>
    </contour>
    <component base="g"/>
  </outline>
</glyph>
<glyph name="Hbar" format="2">
  <advance width="740"/>
  <unicode hex="0126"/>
  <outline>
    <contour>
      <point x="30" y="600" type="line"/>
      <point x="710" y="600" type="line"/>
      <point x="710" y="680" type="line"/>
      <point x="30" y="680" type="line"/>
    </contour>
    <contour>
      <point x="120" y="0" type="line"/>
      <point x="210" y="0" type="line"/>
      <point x="210" y="360" type="line"/>
      <point x="530" y="360" type="line"/>
      <point x="530" y="0" type="line"/>
      <point x="620" y="0" type="line"/>
      <point x="620" y="800" type="line"/>
      <point x="530" y="800" type="line"/>
      <point x="530" y="460" type="line"/>
      <point x="210" y="460" type="line"/>
      <point x="210" y="800" type="line"/>
      <point x="120" y="800" type="line"/>
    </contour>
  </outline>
</glyph>
<glyph name="hbar" format="2">
  <advance width="573"/>
  <unicode hex="0127"/>
  <outline>
    <contour>
      <point x="0" y="670" type="line"/>
      <point x="300" y="670" type="line"/>
      <point x="300" y="740" type="line"/>
      <point x="0" y="740" type="line"/>
    </contour>
    <contour>
      <point x="170" y="320" type="line" smooth="yes"/>
      <point x="170" y="460"/>
      <point x="230" y="515"/>
      <point x="310" y="515" type="curve" smooth="yes"/>
      <point x="390" y="515"/>
      <point x="420" y="460"/>
      <point x="420" y="360" type="curve" smooth="yes"/>
      <point x="420" y="0" type="line"/>
      <point x="510" y="0" type="line"/>
      <point x="510" y="400" type="line" smooth="yes"/>
      <point x="510" y="540"/>
      <point x="435" y="610"/>
      <point x="335" y="610" type="curve" smooth="yes"/>
      <point x="260" y="610"/>
      <point x="205" y="570"/>
      <point x="175" y="510" type="curve"/>
      <point x="170" y="510" type="line"/>
      <point x="170" y="800" type="line"/>
      <point x="80" y="800" type="line"/>
      <point x="80" y="0" type="line"/>
      <point x="170" y="0" type="line"/>
    </contour>
  </outline>
</glyph>
<glyph name="dotlessi" format="2">
  <advance width="236"/>
  <unicode hex="0131"/>
  <anchor x="118.0" y="600" name="top"/>
  <outline>
    <contour>
      <point x="73" y="0" type="line"/>
      <point x="163" y="0" type="line"/>
      <point x="163" y="600" type="line"/>
      <point x="73" y="600" type="line"/>
    </contour>
  </outline>
</glyph>
<glyph name="IJ" format="2">
  <advance width="656"/>
  <unicode hex="0132"/>
  <outline>
    <contour>
      <point x="163" y="400" type="line"/>
      <point x="163" y="800" type="line"/>
      <point x="73" y="800" type="line"/>
      <point x="73" y="400" type="line"/>
    </contour>
    <contour>
      <point x="73" y="300" type="line"/>
      <point x="73" y="100"/>
      <point x="162" y="-10"/>
      <point x="328" y="-10" type="curve" smooth="yes"/>
      <point x="494" y="-10"/>
      <point x="583" y="100"/>
      <point x="583" y="300" type="curve" smooth="yes"/>
      <point x="583" y="800" type="line"/>
      <point x="493" y="800" type="line"/>
      <point x="493" y="300" type="line" smooth="yes"/>
      <point x="493" y="160"/>
      <point x="452" y="90"/>
      <point x="328" y="90" type="curve" smooth="yes"/>
      <point x="204" y="90"/>
      <point x="163" y="160"/>
      <point x="163" y="300" type="curve"/>
    </contour>
  </outline>
</glyph>
<glyph name="lslash" format="2">
  <advance width="300"/>
  <unicode hex="0142"/>
  <outline>
    <contour>
      <point x="25" y="240" type="line"/>
      <point x="275" y="410" type="line"/>
      <point x="275" y="510" type="line"/>
      <point x="25" y="340" type="line"/>
    </contour>
    <contour>
      <point x="105" y="0" type="line"/>
      <point x="195" y="0" type="line"/>
      <point x="195" y="800" type="line"/>
      <point x="105" y="800" type="line"/>
    </contour>
  </outline>
</glyph>
<glyph name="OE" format="2">
  <advance width="1031"/>
  <unicode hex="0152"/>
  <outline>
    <contour>
      <point x="53" y="400" type="curve" smooth="yes"/>
      <point x="53" y="144"/>
      <point x="160" y="-10"/>
      <point x="338" y="-10" type="curve" smooth="yes"/>
      <point x="503" y="-10"/>
      <point x="603" y="144"/>
      <point x="603" y="400" type="curve" smooth="yes"/>
      <point x="603" y="656"/>
      <point x="503" y="810"/>
      <point x="338" y="810" type="curve" smooth="yes"/>
      <point x="160" y="810"/>
      <point x="53" y="656"/>
    </contour>
    <contour>
      <point x="138" y="400" type="curve" smooth="yes"/>
      <point x="138" y="594"/>
      <point x="213" y="710"/>
      <point x="338" y="710" type="curve" smooth="yes"/>
      <point x="463" y="710"/>
      <point x="538" y="594"/>
      <point x="538" y="400" type="curve" smooth="yes"/>
      <point x="538" y="206"/>
      <point x="463" y="90"/>
      <point x="338" y="90" type="curve" smooth="yes"/>
      <point x="213" y="90"/>
      <point x="138" y="206"/>
    </contour>
    <contour>
      <point x="538" y="0" type="line"/>
      <point x="988" y="0" type="line"/>
      <point x="988" y="100" type="line"/>
      <point x="628" y="100" type="line"/>
      <point x="628" y="360" type="line"/>
      <point x="952" y="360" type="line"/>
      <point x="952" y="460" type="line"/>
      <point x="628" y="460" type="line"/>
      <point x="628" y="700" type="line"/>
      <point x="976" y="700" type="line"/>
      <point x="976" y="800" type="line"/>
      <point x="538" y="800" type="line"/>
    </contour>
  </outline>
</glyph>
<glyph name="Rcaron" format="2">
  <advance width="611"/>
  <unicode hex="0158"/>
  <outline>
    <contour>
      <point x="303" y="700" type="line" smooth="yes"/>
      <point x="413" y="700"/>
      <point x="478" y="655"/>
      <point x="478" y="570" type="curve" smooth="yes"/>
      <point x="478" y="485"/>
      <point x="413" y="440"/>
      <point x="303" y="440" type="curve" smooth="yes"/>
      <point x="173" y="440" type="line"/>
      <point x="173" y="700" type="line"/>
    </contour>
    <contour>
      <point x="83" y="0" type="line"/>
      <point x="173" y="0" type="line"/>
      <point x="173" y="340" type="line"/>
      <point x="303" y="340" type="line" smooth="yes"/>
      <point x="403" y="340"/>
      <point x="453" y="300"/>
      <point x="453" y="220" type="curve" smooth="yes"/>
      <point x="453" y="90" type="line" smooth="yes"/>
      <point x="453" y="60"/>
      <point x="458" y="30"/>
      <point x="468" y="0" type="curve"/>
      <point x="558" y="0" type="line"/>
      <point x="548" y="30"/>
      <point x="543" y="60"/>
      <point x="543" y="90" type="curve" smooth="yes"/>
      <point x="543" y="220" type="line" smooth="yes"/>
      <point x="543" y="350"/>
      <point x="463" y="420"/>
      <point x="303" y="420" type="curve"/>
      <point x="303" y="360" type="line"/>
      <point x="483" y="360"/>
      <point x="563" y="440"/>
      <point x="563" y="580" type="curve" smooth="yes"/>
      <point x="563" y="720"/>
      <point x="483" y="800"/>
      <point x="303" y="800" type="curve" smooth="yes"/>
      <point x="83" y="800" type="line"/>
    </contour>
    <contour>
      <point x="443" y="900" type="line"/>
      <point x="343" y="900" type="line"/>
      <point x="263" y="800" type="line"/>
      <point x="344" y="790" type="line"/>
    </contour>
    <contour>
      <point x="143" y="900" type="line"/>
      <point x="233" y="800" type="line"/>
      <point x="323" y="800" type="line"/>
      <point x="243" y="900" type="line"/>
    </contour>
  </outline>
</glyph>
<glyph name="dotlessj" format="2">
  <advance width="236"/>
  <unicode hex="0237"/>
  <anchor x="118.0" y="600" name="top"/>
  <outline>
    <contour>
      <point x="73" y="600" type="line"/>
      <point x="73" y="-65" type="line" smooth="yes"/>
      <point x="73" y="-95"/>
      <point x="63" y="-105"/>
      <point x="33" y="-105" type="curve" smooth="yes"/>
      <point x="-27" y="-105" type="line"/>
      <point x="-27" y="-200" type="line"/>
      <point x="43" y="-200" type="line" smooth="yes"/>
      <point x="123" y="-200"/>
      <point x="163" y="-160"/>
      <point x="163" y="-80" type="curve" smooth="yes"/>
      <point x="163" y="600" type="line"/>
    </contour>
  </outline>
</glyph>
<glyph name="circumflexcomb" format="2">
  <advance width="0"/>
  <unicode hex="0302"/>
  <anchor x="0" y="600" name="_top"/>
  <outline>
    <contour>
      <point x="-145" y="680" type="line"/>
      <point x="-50" y="680" type="line"/>
      <point x="25" y="820" type="line"/>
      <point x="-55" y="820" type="line"/>
    </contour>
    <contour>
      <point x="145" y="680" type="line"/>
      <point x="55" y="820" type="line"/>
      <point x="-25" y="820" type="line"/>
      <point x="50" y="680" type="line"/>
    </contour>
  </outline>
</glyph>
<glyph name="tildecomb" format="2">
  <advance width="0"/>
  <unicode hex="0303"/>
  <anchor x="0" y="600" name="_top"/>
  <outline>
    <contour>
      <point x="-150" y="720" type="curve" smooth="yes"/>
      <point x="-150" y="680" type="line"/>
      <point x="-80" y="680" type="line"/>
      <point x="-80" y="720" type="line" smooth="yes"/>
      <point x="-80" y="740"/>
      <point x="-70" y="750"/>
      <point x="-50" y="750" type="curve" smooth="yes"/>
      <point x="-10" y="750"/>
      <point x="10" y="680"/>
      <point x="70" y="680" type="curve" smooth="yes"/>
      <point x="130" y="680"/>
      <point x="150" y="720"/>
      <point x="150" y="780" type="curve" smooth="yes"/>
      <point x="150" y="820" type="line"/>
      <point x="80" y="820" type="line"/>
      <point x="80" y="780" type="line" smooth="yes"/>
      <point x="80" y="760"/>
      <point x="70" y="750"/>
      <point x="50" y="750" type="curve" smooth="yes"/>
      <point x="10" y="750"/>
      <point x="-10" y="820"/>
      <point x="-70" y="820" type="curve" smooth="yes"/>
      <point x="-130" y="820"/>
      <point x="-150" y="780"/>
    </contour>
  </outline>
</glyph>
<glyph name="ringcomb" format="2">
  <advance width="0"/>
  <unicode hex="030A"/>
  <anchor x="0" y="600" name="_top"/>
  <outline>
    <contour>
      <point x="0" y="655" type="curve" smooth="yes"/>
      <point x="72" y="655"/>
      <point x="120" y="708"/>
      <point x="120" y="780" type="curve" smooth="yes"/>
      <point x="120" y="852"/>
      <point x="72" y="905"/>
      <point x="0" y="905" type="curve" smooth="yes"/>
      <point x="-72" y="905"/>
      <point x="-120" y="852"/>
      <point x="-120" y="780" type="curve" smooth="yes"/>
      <point x="-120" y="708"/>
      <point x="-72" y="655"/>
    </contour>
    <contour>
      <point x="0" y="715" type="curve" smooth="yes"/>
      <point x="-40" y="715"/>
      <point x="-65" y="740"/>
      <point x="-65" y="780" type="curve" smooth="yes"/>
      <point x="-65" y="820"/>
      <point x="-40" y="845"/>
      <point x="0" y="845" type="curve" smooth="yes"/>
      <point x="40" y="845"/>
      <point x="65" y="820"/>
      <point x="65" y="780" type="curve" smooth="yes"/>
      <point x="65" y="740"/>
      <point x="40" y="715"/>
    </contour>
  </outline>
</glyph>
<glyph name="commaaccentcomb" format="2">
  <advance width="0"/>
  <unicode hex="0326"/>
  <anchor x="0" y="0" name="_bottom"/>
  <outline>
    <contour>
      <point x="-20" y="0" type="line"/>
      <point x="-20" y="-10" type="line" smooth="yes"/>
      <point x="-20" y="-60"/>
      <point x="-30" y="-90"/>
      <point x="-70" y="-90" type="curve"/>
      <point x="-70" y="-150" type="line"/>
      <point x="0" y="-150"/>
      <point x="30" y="-100"/>
      <point x="30" y="-10" type="curve" smooth="yes"/>
      <point x="30" y="0" type="line"/>
    </contour>
  </outline>
</glyph>
<glyph name="emdash" format="2">
  <advance width="960"/>
  <unicode hex="2014"/>
  <outline>
    <contour>
      <point x="890" y="345" type="line"/>
      <point x="70" y="345" type="line"/>
      <point x="70" y="255" type="line"/>
      <point x="890" y="255" type="line"/>
    </contour>
  </outline>
</glyph>
<glyph name="quoteleft" format="2">
  <advance width="250"/>
  <unicode hex="2018"/>
  <outline>
    <contour>
      <point x="180" y="650" type="line"/>
      <point x="120" y="650" type="line"/>
      <point x="120" y="680" type="line" smooth="yes"/>
      <point x="120" y="720"/>
      <point x="140" y="740"/>
      <point x="180" y="740" type="curve"/>
      <point x="180" y="800" type="line"/>
      <point x="100" y="800"/>
      <point x="70" y="760"/>
      <point x="70" y="680" type="curve" smooth="yes"/>
      <point x="70" y="530" type="line"/>
      <point x="180" y="530" type="line"/>
    </contour>
  </outline>
</glyph>
<glyph name="quoteright" format="2">
  <advance width="250"/>
  <unicode hex="2019"/>
  <outline>
    <contour>
      <point x="70" y="680" type="line"/>
      <point x="130" y="680" type="line"/>
      <point x="130" y="650" type="line" smooth="yes"/>
      <point x="130" y="610"/>
      <point x="110" y="590"/>
      <point x="70" y="590" type="curve"/>
      <point x="70" y="530" type="line"/>
      <point x="150" y="530"/>
      <point x="180" y="570"/>
      <point x="180" y="650" type="curve" smooth="yes"/>
      <point x="180" y="800" type="line"/>
      <point x="70" y="800" type="line"/>
    </contour>
  </outline>
</glyph>
<glyph name="ellipsis" format="2">
  <advance width="610"/>
  <unicode hex="2026"/>
  <outline>
    <contour>
      <point x="70" y="0" type="line"/>
      <point x="180" y="0" type="line"/>
      <point x="180" y="120" type="line"/>
      <point x="70" y="120" type="line"/>
    </contour>
    <contour>
      <point x="250" y="0" type="line"/>
      <point x="360" y="0" type="line"/>
      <point x="360" y="120" type="line"/>
      <point x="250" y="120" type="line"/>
    </contour>
    <contour>
      <point x="430" y="0" type="line"/>
      <point x="540" y="0" type="line"/>
      <point x="540" y="120" type="line"/>
      <point x="430" y="120" type="line"/>
    </contour>
  </outline>
</glyph>
<glyph name="guilsinglleft" format="2">
  <advance width="400"/>
  <unicode hex="2039"/>
  <outline>
    <contour>
      <point x="350" y="550" type="line"/>
      <point x="50" y="350" type="line"/>
      <point x="50" y="260" type="line"/>
      <point x="350" y="450" type="line"/>
    </contour>
    <contour>
      <point x="350" y="152" type="line"/>
      <point x="50" y="342" type="line"/>
      <point x="50" y="250" type="line"/>
      <point x="350" y="50" type="line"/>
    </contour>
  </outline>
</glyph>
<glyph name="guilsinglright" format="2">
  <advance width="400"/>
  <unicode hex="203A"/>
  <outline>
    <contour>
      <point x="50" y="50" type="line"/>
      <point x="350" y="250" type="line"/>
      <point x="350" y="340" type="line"/>
      <point x="50" y="150" type="line"/>
    </contour>
    <contour>
      <point x="50" y="448" type="line"/>
      <point x="350" y="258" type="line"/>
      <point x="350" y="350" type="line"/>
      <point x="50" y="550" type="line"/>
    </contour>
  </outline>
</glyph>
<glyph name="trademark" format="2">
  <advance width="735"/>
  <unicode hex="2122"/>
  <outline>
    <contour>
      <point x="310" y="400" type="line"/>
      <point x="375" y="400" type="line"/>
      <point x="375" y="800" type="line"/>
      <point x="310" y="800" type="line"/>
    </contour>
    <contour>
      <point x="620" y="400" type="line"/>
      <point x="685" y="400" type="line"/>
      <point x="685" y="800" type="line"/>
      <point x="620" y="800" type="line"/>
    </contour>
    <contour>
      <point x="495.0" y="520.0" type="line"/>
      <point x="485" y="560" type="line"/>
      <point x="423" y="800" type="line"/>
      <point x="361.0" y="800.0" type="line"/>
      <point x="375" y="710" type="line"/>
      <point x="385" y="710" type="line"/>
      <point x="400.0" y="650.0" type="line"/>
      <point x="465.0" y="400.0" type="line"/>
      <point x="530.0" y="400.0" type="line"/>
      <point x="595.0" y="650.0" type="line"/>
      <point x="610" y="710" type="line"/>
      <point x="620" y="710" type="line"/>
      <point x="634.0" y="800.0" type="line"/>
      <point x="572" y="800" type="line"/>
      <point x="510" y="560" type="line"/>
      <point x="500.0" y="520.0" type="line"/>
    </contour>
    <contour>
      <point x="110" y="400" type="line"/>
      <point x="170" y="400" type="line"/>
      <point x="170" y="731" type="line"/>
      <point x="270" y="731" type="line"/>
      <point x="270" y="800" type="line"/>
      <point x="10" y="800" type="line"/>
      <point x="10" y="731" type="line"/>
      <point x="110" y="731" type="line"/>
    </contour>
  </outline>
</glyph>
<glyph name="minus" format="2">
  <advance width="600"/>
  <unicode hex="2212"/>
  <outline>
    <contour>
      <point x="530" y="395" type="line"/>
      <point x="70" y="395" type="line"/>
      <point x="70" y="305" type="line"/>
      <point x="530" y="305" type="line"/>
    </contour>
  </outline>
</glyph>
<glyph name="acutecomb.cap" format="2">
  <advance width="0"/>
  <anchor x="0" y="800" name="_top"/>
  <outline>
    <contour>
      <point x="-45" y="800" type="line"/>
      <point x="45" y="800" type="line"/>
      <point x="125" y="900" type="line"/>
      <point x="5" y="900" type="line"/>
    </contour>
  </outline>
</glyph>
<glyph name="brevecomb.cap" format="2">
  <advance width="0"/>
  <anchor x="0" y="800" name="_top"/>
  <outline>
    <contour>
      <point x="0" y="790" type="curve" smooth="yes"/>
      <point x="100" y="790"/>
      <point x="140" y="840"/>
      <point x="140" y="900" type="curve"/>
      <point x="70" y="900" type="line"/>
      <point x="70" y="870"/>
      <point x="50" y="850"/>
      <point x="0" y="850" type="curve" smooth="yes"/>
      <point x="-50" y="850"/>
      <point x="-70" y="870"/>
      <point x="-70" y="900" type="curve"/>
      <point x="-140" y="900" type="line"/>
      <point x="-140" y="840"/>
      <point x="-100" y="790"/>
    </contour>
  </outline>
</glyph>
<glyph name="brevecomb" format="2">
  <anchor x="0.0" y="600" name="_top"/>
  <outline>
    <contour>
      <point x="0" y="680" type="curve" smooth="yes"/>
      <point x="100" y="680"/>
      <point x="150" y="740"/>
      <point x="150" y="820" type="curve"/>
      <point x="80" y="820" type="line"/>
      <point x="80" y="780"/>
      <point x="50" y="750"/>
      <point x="0" y="750" type="curve" smooth="yes"/>
      <point x="-50" y="750"/>
      <point x="-80" y="780"/>
      <point x="-80" y="820" type="curve"/>
      <point x="-150" y="820" type="line"/>
      <point x="-150" y="740"/>
      <point x="-100" y="680"/>
    </contour>
  </outline>
</glyph>
<glyph name="caroncomb.alt" format="2">
  <advance width="0"/>
  <anchor x="0" y="600" name="_caron.alt"/>
  <outline>
    <contour>
      <point x="50" y="660" type="line"/>
      <point x="130" y="660" type="line"/>
      <point x="210" y="800" type="line"/>
      <point x="100" y="800" type="line"/>
    </contour>
  </outline>
</glyph>
<glyph name="caroncomb" format="2">
  <anchor x="0.0" y="600" name="_top"/>
  <outline>
    <contour>
      <point x="145" y="820" type="line"/>
      <point x="50" y="820" type="line"/>
      <point x="-25" y="680" type="line"/>
      <point x="55" y="680" type="line"/>
    </contour>
    <contour>
      <point x="-145" y="820" type="line"/>
      <point x="-55" y="680" type="line"/>
      <point x="25" y="680" type="line"/>
      <point x="-50" y="820" type="line"/>
    </contour>
  </outline>
</glyph>
<glyph name="cedillacomb" format="2">
  <anchor x="0.0" y="0" name="_bottom"/>
  <outline>
    <contour>
      <point x="40" y="0" type="line"/>
      <point x="-30" y="0" type="line"/>
      <point x="-80" y="-150" type="line"/>
      <point x="20" y="-150" type="line"/>
    </contour>
  </outline>
</glyph>
<glyph name="circumflexcomb.cap" format="2">
  <anchor x="0.0" y="800.0" name="_top"/>
  <outline>
    <contour>
      <point x="-150" y="800" type="line"/>
      <point x="-50" y="800" type="line"/>
      <point x="30" y="900" type="line"/>
      <point x="-60" y="900" type="line"/>
    </contour>
    <contour>
      <point x="150" y="800" type="line"/>
      <point x="60" y="900" type="line"/>
      <point x="-30" y="900" type="line"/>
      <point x="50" y="800" type="line"/>
    </contour>
  </outline>
</glyph>
<glyph name="dieresiscomb" format="2">
  <anchor x="0.0" y="600" name="_top"/>
  <outline>
    <contour>
      <point x="-135" y="690" type="line"/>
      <point x="-45" y="690" type="line"/>
      <point x="-45" y="800" type="line"/>
      <point x="-135" y="800" type="line"/>
    </contour>
    <contour>
      <point x="45" y="690" type="line"/>
      <point x="135" y="690" type="line"/>
      <point x="135" y="800" type="line"/>
      <point x="45" y="800" type="line"/>
    </contour>
  </outline>
</glyph>
<glyph name="eight.tab" format="2">
  <advance width="600"/>
  <outline>
    <contour>
      <point x="300" y="460" type="curve" smooth="yes"/>
      <point x="195" y="460"/>
      <point x="150" y="515"/>
      <point x="150" y="585" type="curve" smooth="yes"/>
      <point x="150" y="655"/>
      <point x="195" y="710"/>
      <point x="300" y="710" type="curve" smooth="yes"/>
      <point x="405" y="710"/>
      <point x="450" y="655"/>
      <point x="450" y="585" type="curve" smooth="yes"/>
      <point x="450" y="515"/>
      <point x="405" y="460"/>
    </contour>
    <contour>
      <point x="300" y="90" type="curve" smooth="yes"/>
      <point x="190" y="90"/>
      <point x="135" y="150"/>
      <point x="135" y="225" type="curve" smooth="yes"/>
      <point x="135" y="300"/>
      <point x="190" y="360"/>
      <point x="300" y="360" type="curve" smooth="yes"/>
      <point x="410" y="360"/>
      <point x="465" y="300"/>
      <point x="465" y="225" type="curve" smooth="yes"/>
      <point x="465" y="150"/>
      <point x="410" y="90"/>
    </contour>
    <contour>
      <point x="300" y="-10" type="curve" smooth="yes"/>
      <point x="470" y="-10"/>
      <point x="550" y="100"/>
      <point x="550" y="220" type="curve" smooth="yes"/>
      <point x="550" y="340"/>
      <point x="470" y="450"/>
      <point x="300" y="450" type="curve" smooth="yes"/>
      <point x="130" y="450"/>
      <point x="50" y="340"/>
      <point x="50" y="220" type="curve" smooth="yes"/>
      <point x="50" y="100"/>
      <point x="130" y="-10"/>
    </contour>
    <contour>
      <point x="300" y="370" type="curve" smooth="yes"/>
      <point x="460" y="370"/>
      <point x="535" y="480"/>
      <point x="535" y="590" type="curve" smooth="yes"/>
      <point x="535" y="700"/>
      <point x="460" y="810"/>
      <point x="300" y="810" type="curve" smooth="yes"/>
      <point x="140" y="810"/>
      <point x="65" y="700"/>
      <point x="65" y="590" type="curve" smooth="yes"/>
      <point x="65" y="480"/>
      <point x="140" y="370"/>
    </contour>
  </outline>
</glyph>
<glyph name="f.short" format="2">
  <advance width="336"/>
  <outline>
    <contour>
      <point x="193" y="0" type="line"/>
      <point x="193" y="505" type="line"/>
      <point x="303" y="505" type="line"/>
      <point x="303" y="600" type="line"/>
      <point x="193" y="600" type="line"/>
      <point x="193" y="665" type="line" smooth="yes"/>
      <point x="193" y="695"/>
      <point x="203" y="705"/>
      <point x="233" y="705" type="curve" smooth="yes"/>
      <point x="303" y="705" type="line"/>
      <point x="303" y="800" type="line"/>
      <point x="223" y="800" type="line" smooth="yes"/>
      <point x="143" y="800"/>
      <point x="103" y="760"/>
      <point x="103" y="680" type="curve" smooth="yes"/>
      <point x="103" y="600" type="line"/>
      <point x="23" y="600" type="line"/>
      <point x="23" y="505" type="line"/>
      <point x="103" y="505" type="line"/>
      <point x="103" y="0" type="line"/>
    </contour>
  </outline>
</glyph>
<glyph name="five.tab" format="2">
  <advance width="600"/>
  <outline>
    <contour>
      <point x="530" y="800" type="line"/>
      <point x="120" y="800" type="line"/>
      <point x="70" y="370" type="line"/>
      <point x="155" y="370" type="line"/>
      <point x="175" y="400"/>
      <point x="210" y="450"/>
      <point x="300" y="450" type="curve" smooth="yes"/>
      <point x="410" y="450"/>
      <point x="465" y="380"/>
      <point x="465" y="270" type="curve" smooth="yes"/>
      <point x="465" y="160"/>
      <point x="410" y="90"/>
      <point x="300" y="90" type="curve" smooth="yes"/>
      <point x="190" y="90"/>
      <point x="135" y="160"/>
      <point x="135" y="240" type="curve"/>
      <point x="50" y="240" type="line"/>
      <point x="50" y="120"/>
      <point x="134" y="-10"/>
      <point x="300" y="-10" type="curve" smooth="yes"/>
      <point x="467" y="-10"/>
      <point x="550" y="120"/>
      <point x="550" y="270" type="curve" smooth="yes"/>
      <point x="550" y="420"/>
      <point x="467" y="550"/>
      <point x="320" y="550" type="curve" smooth="yes"/>
      <point x="250" y="550"/>
      <point x="205" y="520"/>
      <point x="178" y="490" type="curve"/>
      <point x="170" y="490" type="line"/>
      <point x="195" y="700" type="line"/>
      <point x="530" y="700" type="line"/>
    </contour>
  </outline>
</glyph>
<glyph name="four.tab" format="2">
  <advance width="600"/>
  <outline>
    <contour>
      <point x="35" y="180" type="line"/>
      <point x="575" y="180" type="line"/>
      <point x="575" y="280" type="line"/>
      <point x="85" y="280" type="line"/>
      <point x="105" y="250" type="line"/>
      <point x="365" y="750" type="line"/>
      <point x="365" y="750" type="line"/>
      <point x="365" y="0" type="line"/>
      <point x="455" y="0" type="line"/>
      <point x="455" y="800" type="line"/>
      <point x="295" y="800" type="line"/>
      <point x="35" y="300" type="line"/>
    </contour>
    <contour>
      <point x="320" y="700" type="line"/>
      <point x="385" y="700" type="line"/>
      <point x="385" y="750" type="line"/>
      <point x="320" y="750" type="line"/>
    </contour>
  </outline>
</glyph>
<glyph name="gravecomb" format="2">
  <anchor x="0.0" y="600" name="_top"/>
  <outline>
    <contour>
      <point x="50" y="680" type="line"/>
      <point x="-25" y="820" type="line"/>
      <point x="-145" y="820" type="line"/>
      <point x="-40" y="680" type="line"/>
    </contour>
  </outline>
</glyph>
<glyph name="hungarumlautcomb.cap" format="2">
  <anchor x="0.0" y="800.0" name="_top"/>
  <outline>
    <contour>
      <point x="-125" y="800" type="line"/>
      <point x="-50" y="800" type="line"/>
      <point x="30" y="900" type="line"/>
      <point x="-75" y="900" type="line"/>
    </contour>
    <contour>
      <point x="20" y="800" type="line"/>
      <point x="100" y="800" type="line"/>
      <point x="200" y="900" type="line"/>
      <point x="90" y="900" type="line"/>
    </contour>
  </outline>
</glyph>
<glyph name="hungarumlautcomb" format="2">
  <anchor x="0.0" y="600" name="_top"/>
  <outline>
    <contour>
      <point x="-130" y="680" type="line"/>
      <point x="-50" y="680" type="line"/>
      <point x="45" y="820" type="line"/>
      <point x="-65" y="820" type="line"/>
    </contour>
    <contour>
      <point x="20" y="680" type="line"/>
      <point x="100" y="680" type="line"/>
      <point x="225" y="820" type="line"/>
      <point x="105" y="820" type="line"/>
    </contour>
  </outline>
</glyph>
<glyph name="ijacute" format="2">
  <advance width="472"/>
  <outline>
    <contour>
      <point x="73" y="0" type="line"/>
      <point x="163" y="0" type="line"/>
      <point x="163" y="600" type="line"/>
      <point x="73" y="600" type="line"/>
    </contour>
    <contour>
      <point x="309" y="600" type="line"/>
      <point x="309" y="-65" type="line" smooth="yes"/>
      <point x="309" y="-95"/>
      <point x="299" y="-105"/>
      <point x="269" y="-105" type="curve" smooth="yes"/>
      <point x="209" y="-105" type="line"/>
      <point x="209" y="-200" type="line"/>
      <point x="279" y="-200" type="line" smooth="yes"/>
      <point x="359" y="-200"/>
      <point x="399" y="-160"/>
      <point x="399" y="-80" type="curve" smooth="yes"/>
      <point x="399" y="600" type="line"/>
    </contour>
    <contour>
      <point x="309" y="680" type="line"/>
      <point x="399" y="680" type="line"/>
      <point x="504" y="820" type="line"/>
      <point x="384" y="820" type="line"/>
    </contour>
    <contour>
      <point x="73" y="680" type="line"/>
      <point x="163" y="680" type="line"/>
      <point x="268" y="820" type="line"/>
      <point x="148" y="820" type="line"/>
    </contour>
  </outline>
</glyph>
<glyph name="macroncomb" format="2">
  <anchor x="0.0" y="600" name="_top"/>
  <outline>
    <contour>
      <point x="-150" y="700" type="line"/>
      <point x="150" y="700" type="line"/>
      <point x="150" y="780" type="line"/>
      <point x="-150" y="780" type="line"/>
    </contour>
  </outline>
</glyph>
<glyph name="nine.tab" format="2">
  <advance width="600"/>
  <outline>
    <contour>
      <point x="460" y="360" type="line"/>
      <point x="450" y="160"/>
      <point x="380" y="90"/>
      <point x="290" y="90" type="curve" smooth="yes"/>
      <point x="200" y="90"/>
      <point x="160" y="150"/>
      <point x="150" y="220" type="curve"/>
      <point x="60" y="220" type="line"/>
      <point x="72" y="120"/>
      <point x="130" y="-10"/>
      <point x="290" y="-10" type="curve" smooth="yes"/>
      <point x="450" y="-10"/>
      <point x="550" y="140"/>
      <point x="550" y="440" type="curve" smooth="yes"/>
      <point x="550" y="680"/>
      <point x="460" y="810"/>
      <point x="300" y="810" type="curve" smooth="yes"/>
      <point x="133" y="810"/>
      <point x="50" y="680"/>
      <point x="50" y="540" type="curve" smooth="yes"/>
      <point x="50" y="400"/>
      <point x="133" y="270"/>
      <point x="280" y="270" type="curve" smooth="yes"/>
      <point x="370" y="270"/>
      <point x="432" y="320"/>
      <point x="452" y="360" type="curve"/>
    </contour>
    <contour>
      <point x="300" y="710" type="curve" smooth="yes"/>
      <point x="390" y="710"/>
      <point x="455" y="640"/>
      <point x="455" y="540" type="curve" smooth="yes"/>
      <point x="455" y="440"/>
      <point x="390" y="370"/>
      <point x="300" y="370" type="curve" smooth="yes"/>
      <point x="200" y="370"/>
      <point x="135" y="440"/>
      <point x="135" y="540" type="curve" smooth="yes"/>
      <point x="135" y="640"/>
      <point x="200" y="710"/>
    </contour>
  </outline>
</glyph>
<glyph name="one.tab" format="2">
  <advance width="600"/>
  <outline>
    <contour>
      <point x="540" y="0" type="line"/>
      <point x="540" y="100" type="line"/>
      <point x="90" y="100" type="line"/>
      <point x="90" y="0" type="line"/>
    </contour>
    <contour>
      <point x="270" y="0" type="line"/>
      <point x="360" y="0" type="line"/>
      <point x="360" y="800" type="line"/>
      <point x="280" y="800" type="line"/>
      <point x="280" y="700"/>
      <point x="230" y="650"/>
      <point x="130" y="650" type="curve"/>
      <point x="90" y="650" type="line"/>
      <point x="90" y="570" type="line"/>
      <point x="270" y="570" type="line"/>
    </contour>
  </outline>
</glyph>
<glyph name="periodcentered.loclCAT.case" format="2">
  <advance width="0"/>
  <outline>
    <contour>
      <point x="-190" y="340" type="line"/>
      <point x="-80" y="340" type="line"/>
      <point x="-80" y="460" type="line"/>
      <point x="-190" y="460" type="line"/>
    </contour>
  </outline>
</glyph>
<glyph name="seven.tab" format="2">
  <advance width="600"/>
  <outline>
    <contour>
      <point x="190" y="0" type="curve"/>
      <point x="290" y="0" type="line"/>
      <point x="290" y="260"/>
      <point x="380" y="500"/>
      <point x="560" y="700" type="curve"/>
      <point x="560" y="800" type="line"/>
      <point x="40" y="800" type="line"/>
      <point x="40" y="700" type="line"/>
      <point x="520" y="700" type="line"/>
      <point x="470" y="700" type="line"/>
      <point x="290" y="500"/>
      <point x="190" y="260"/>
    </contour>
  </outline>
</glyph>
<glyph name="t.short" format="2">
  <advance width="336"/>
  <outline>
    <contour>
      <point x="23" y="600" type="line"/>
      <point x="23" y="505" type="line"/>
      <point x="103" y="505" type="line"/>
      <point x="103" y="120" type="line" smooth="yes"/>
      <point x="103" y="40"/>
      <point x="143" y="0"/>
      <point x="223" y="0" type="curve" smooth="yes"/>
      <point x="303" y="0" type="line"/>
      <point x="303" y="95" type="line"/>
      <point x="233" y="95" type="line" smooth="yes"/>
      <point x="203" y="95"/>
      <point x="193" y="105"/>
      <point x="193" y="135" type="curve" smooth="yes"/>
      <point x="193" y="505" type="line"/>
      <point x="303" y="505" type="line"/>
      <point x="303" y="600" type="line"/>
      <point x="193" y="600" type="line"/>
      <point x="193" y="750" type="line"/>
      <point x="103" y="750" type="line"/>
      <point x="103" y="600" type="line"/>
    </contour>
  </outline>
</glyph>
<glyph name="t_t" format="2">
  <advance width="672"/>
  <outline>
    <contour>
      <point x="23" y="600" type="line"/>
      <point x="23" y="505" type="line"/>
      <point x="103" y="505" type="line"/>
      <point x="103" y="120" type="line" smooth="yes"/>
      <point x="103" y="40"/>
      <point x="143" y="0"/>
      <point x="223" y="0" type="curve" smooth="yes"/>
      <point x="303" y="0" type="line"/>
      <point x="303" y="95" type="line"/>
      <point x="233" y="95" type="line" smooth="yes"/>
      <point x="203" y="95"/>
      <point x="193" y="105"/>
      <point x="193" y="135" type="curve" smooth="yes"/>
      <point x="193" y="505" type="line"/>
      <point x="303" y="505" type="line"/>
      <point x="303" y="600" type="line"/>
      <point x="193" y="600" type="line"/>
      <point x="193" y="750" type="line"/>
      <point x="103" y="750" type="line"/>
      <point x="103" y="600" type="line"/>
    </contour>
    <contour>
      <point x="359" y="600" type="line"/>
      <point x="359" y="505" type="line"/>
      <point x="439" y="505" type="line"/>
      <point x="439" y="120" type="line" smooth="yes"/>
      <point x="439" y="40"/>
      <point x="479" y="0"/>
      <point x="559" y="0" type="curve" smooth="yes"/>
      <point x="639" y="0" type="line"/>
      <point x="639" y="95" type="line"/>
      <point x="569" y="95" type="line" smooth="yes"/>
      <point x="539" y="95"/>
      <point x="529" y="105"/>
      <point x="529" y="135" type="curve" smooth="yes"/>
      <point x="529" y="505" type="line"/>
      <point x="639" y="505" type="line"/>
      <point x="639" y="600" type="line"/>
      <point x="529" y="600" type="line"/>
      <point x="529" y="750" type="line"/>
      <point x="439" y="750" type="line"/>
      <point x="439" y="600" type="line"/>
    </contour>
  </outline>
</glyph>
<glyph name="tildecomb.cap" format="2">
  <anchor x="0.0" y="800.0" name="_top"/>
  <outline>
    <contour>
      <point x="-140" y="820" type="curve" smooth="yes"/>
      <point x="-140" y="800" type="line"/>
      <point x="-70" y="800" type="line"/>
      <point x="-70" y="810" type="line" smooth="yes"/>
      <point x="-70" y="830"/>
      <point x="-60" y="840"/>
      <point x="-40" y="840" type="curve" smooth="yes"/>
      <point x="-10" y="840"/>
      <point x="10" y="800"/>
      <point x="60" y="800" type="curve" smooth="yes"/>
      <point x="120" y="800"/>
      <point x="140" y="840"/>
      <point x="140" y="880" type="curve" smooth="yes"/>
      <point x="140" y="900" type="line"/>
      <point x="70" y="900" type="line"/>
      <point x="70" y="890" type="line" smooth="yes"/>
      <point x="70" y="870"/>
      <point x="60" y="860"/>
      <point x="40" y="860" type="curve" smooth="yes"/>
      <point x="10" y="860"/>
      <point x="-10" y="900"/>
      <point x="-60" y="900" type="curve" smooth="yes"/>
      <point x="-120" y="900"/>
      <point x="-140" y="860"/>
    </contour>
  </outline>
</glyph>
<glyph name="zero.tab" format="2">
  <advance width="600"/>
  <outline>
    <contour>
      <point x="60" y="400" type="curve" smooth="yes"/>
      <point x="60" y="144"/>
      <point x="149" y="-10"/>
      <point x="300" y="-10" type="curve" smooth="yes"/>
      <point x="450" y="-10"/>
      <point x="540" y="144"/>
      <point x="540" y="400" type="curve" smooth="yes"/>
      <point x="540" y="656"/>
      <point x="450" y="810"/>
      <point x="300" y="810" type="curve" smooth="yes"/>
      <point x="149" y="810"/>
      <point x="60" y="656"/>
    </contour>
    <contour>
      <point x="145" y="400" type="curve" smooth="yes"/>
      <point x="145" y="594"/>
      <point x="202" y="710"/>
      <point x="300" y="710" type="curve" smooth="yes"/>
      <point x="398" y="710"/>
      <point x="455" y="594"/>
      <point x="455" y="400" type="curve" smooth="yes"/>
      <point x="455" y="206"/>
      <point x="398" y="90"/>
      <point x="300" y="90" type="curve" smooth="yes"/>
      <point x="202" y="90"/>
      <point x="145" y="206"/>
    </contour>
  </outline>
</glyph>
